<?xml version="1.0" standalone="no"?>
<!DOCTYPE svg PUBLIC "-//W3C//DTD SVG 20010904//EN"
 "http://www.w3.org/TR/2001/REC-SVG-20010904/DTD/svg10.dtd">
<svg version="1.0" xmlns="http://www.w3.org/2000/svg"
 width="31.000000pt" height="25.000000pt" viewBox="0 0 31.000000 25.000000"
 preserveAspectRatio="xMidYMid meet">
<metadata>
Created by potrace 1.16, written by Peter Selinger 2001-2019
</metadata>
<g transform="translate(0.000000,25.000000) scale(0.001234,-0.001060)"
fill="#000000" stroke="none">
<path d="M0 11795 l0 -11795 12565 0 12565 0 0 11795 0 11795 -12565 0 -12565
0 0 -11795z m9568 7392 c13 2 21 -1 17 -7 -7 -11 34 -35 43 -25 4 4 -1 11 -11
16 -9 6 -17 17 -17 24 0 8 -5 15 -12 15 -6 0 -9 2 -6 5 10 10 37 -7 32 -20 -3
-7 3 -16 14 -19 29 -10 35 -34 12 -46 -11 -6 -20 -16 -20 -22 0 -6 6 -5 17 3
9 8 26 14 37 15 12 0 31 4 42 8 17 5 22 3 20 -11 -1 -12 5 -17 17 -15 9 2 17
-2 17 -8 0 -5 -9 -10 -21 -10 -11 0 -17 -4 -14 -10 3 -5 3 -15 -1 -21 -4 -8
-9 -7 -14 2 -7 10 -11 9 -24 -3 -8 -9 -13 -18 -10 -20 2 -3 -15 -4 -40 -2 -30
2 -48 -1 -56 -11 -8 -9 -21 -13 -36 -9 -18 5 -24 2 -24 -10 0 -9 -4 -16 -9
-16 -14 0 -6 53 9 58 7 3 10 0 6 -7 -4 -6 -2 -11 4 -11 6 0 10 8 8 18 -3 17 4
19 35 7 10 -4 17 -3 17 4 0 6 -5 11 -11 11 -8 0 -7 5 1 16 8 8 15 26 16 39 2
21 -1 24 -24 21 -15 -2 -21 -1 -14 1 19 7 14 23 -8 23 -11 0 -20 -5 -20 -11 0
-5 -5 -7 -12 -3 -9 6 -9 9 0 12 7 2 12 8 12 13 0 4 -6 6 -14 3 -11 -4 -11 1
-2 31 l11 36 5 -33 c4 -27 9 -33 28 -31z m-155 -27 c-3 -13 0 -20 8 -20 11 0
11 -2 1 -8 -13 -9 -6 -42 9 -42 4 0 6 -8 4 -17 -3 -10 1 -4 9 12 8 17 12 33 9
38 -2 4 0 7 5 7 4 0 8 -35 8 -79 -1 -56 -4 -77 -13 -74 -6 3 -20 -5 -30 -16
-9 -12 -23 -21 -30 -21 -7 0 -13 -4 -13 -10 0 -5 -7 -10 -15 -10 -9 0 -18 -7
-21 -15 -4 -8 -15 -15 -25 -15 -11 0 -19 -7 -19 -16 0 -13 7 -11 43 8 23 13
44 26 45 31 2 4 12 7 22 7 10 0 21 8 24 18 4 12 15 18 29 17 12 -1 32 3 45 8
24 11 43 -3 38 -27 -2 -6 -1 -8 1 -3 3 4 11 7 19 7 9 0 12 5 9 10 -4 6 -11 7
-17 4 -6 -4 -8 1 -6 12 4 25 64 39 97 23 15 -7 21 -13 14 -16 -10 -4 -9 -8 1
-19 19 -19 32 -18 16 1 -10 12 -9 15 8 15 11 0 22 -7 26 -15 3 -8 11 -15 18
-15 10 0 10 2 0 9 -7 4 -14 18 -15 29 -1 23 -16 29 -32 13 -6 -5 -18 -1 -29
10 -11 11 -14 19 -8 19 6 0 14 -5 17 -10 5 -7 11 -8 19 -1 15 13 96 22 96 12
0 -5 7 -12 16 -15 11 -4 15 -2 11 8 -7 17 47 16 65 -2 6 -6 18 -12 25 -12 27
0 11 -17 -27 -29 -30 -9 -40 -17 -40 -32 0 -11 5 -17 10 -14 6 4 8 11 5 16 -8
11 44 32 62 25 9 -4 11 -1 7 5 -4 7 -1 10 7 7 8 -3 13 -14 12 -24 -1 -18 -1
-18 13 0 8 11 14 22 14 25 0 8 -51 31 -68 31 -7 0 -10 5 -7 10 4 7 12 7 25 0
10 -5 25 -8 32 -5 7 2 29 0 48 -4 19 -5 28 -9 19 -10 -17 -1 -30 -22 -28 -44
0 -7 4 -4 8 7 5 13 20 19 52 22 33 3 40 1 29 -7 -12 -9 -11 -10 8 -6 14 3 20
1 15 -6 -4 -6 0 -8 10 -4 10 3 25 3 34 0 15 -6 14 -7 -3 -13 -10 -4 -27 -3
-37 2 -21 11 -52 -13 -36 -29 6 -6 -3 -10 -27 -11 -31 -1 -34 1 -24 13 17 20
-4 20 -24 0 -18 -18 -40 -20 -30 -2 6 8 3 8 -9 -2 -10 -8 -31 -12 -52 -9 -51
6 -45 -17 7 -27 12 -3 25 -1 28 4 3 5 11 3 18 -5 7 -8 8 -14 2 -14 -5 0 -10
-7 -10 -15 0 -9 -8 -19 -17 -22 -10 -4 -21 -11 -25 -17 -6 -7 -11 -6 -18 4 -6
10 -10 11 -10 3 0 -7 -3 -12 -7 -12 -22 4 -43 -2 -43 -12 0 -6 9 -8 20 -4 13
4 20 2 20 -7 0 -9 3 -9 8 -2 6 10 62 26 62 18 0 -1 -42 -26 -92 -55 -58 -33
-105 -53 -125 -53 -28 0 -32 -3 -27 -22 4 -17 -1 -26 -25 -40 -35 -21 -45 -52
-11 -34 24 13 26 3 6 -43 -16 -39 -68 -97 -85 -97 -8 0 -11 -7 -7 -15 3 -8 2
-14 -2 -12 -11 3 -62 -39 -62 -53 0 -6 -5 -8 -12 -4 -7 5 -8 3 -3 -6 7 -11 10
-10 19 1 6 8 18 20 27 27 14 10 16 9 15 -7 -1 -20 -50 -81 -65 -81 -4 0 -16
-15 -26 -34 -11 -19 -29 -40 -42 -47 -13 -7 -23 -17 -23 -22 0 -5 7 -4 15 3
19 16 51 5 37 -13 -5 -6 -9 -19 -10 -27 -1 -53 -8 -84 -34 -160 -17 -47 -31
-103 -33 -125 -1 -22 -6 -52 -10 -68 -5 -17 -3 -33 6 -43 9 -11 9 -18 2 -22
-6 -4 -17 -27 -24 -51 -7 -23 -18 -45 -25 -48 -7 -3 -10 -11 -7 -18 2 -8 -6
-29 -19 -47 -47 -66 -56 -104 -14 -62 18 18 19 14 6 -41 -6 -28 -6 -42 2 -46
8 -5 7 -19 -6 -48 -11 -24 -16 -47 -11 -58 12 -28 15 -103 4 -103 -5 0 -8 -3
-7 -7 4 -14 -35 -92 -44 -87 -4 3 -8 -9 -8 -25 0 -17 4 -31 9 -31 4 0 -6 -29
-24 -65 -18 -35 -30 -66 -27 -69 3 -3 0 -11 -5 -18 -16 -20 -25 -68 -13 -68 5
0 10 -5 10 -11 0 -18 -51 -115 -76 -144 -28 -33 -24 -47 6 -20 25 23 28 1 4
-33 -14 -20 -14 -24 0 -38 15 -14 15 -17 0 -31 -11 -12 -14 -26 -9 -50 4 -24
1 -42 -10 -60 -14 -20 -14 -27 -4 -33 10 -7 10 -12 1 -22 -12 -15 -12 -148 0
-148 7 0 3 -34 -6 -49 -3 -5 1 -11 9 -15 8 -3 15 -10 15 -16 0 -6 -6 -8 -12
-4 -9 6 -9 3 1 -9 14 -18 21 -96 10 -112 -4 -6 -4 -27 0 -47 7 -29 16 -255 12
-293 -1 -5 -3 -50 -6 -100 -6 -117 -6 -118 -17 -132 -5 -6 -11 -45 -12 -85 -2
-40 -8 -86 -15 -101 -6 -16 -13 -45 -17 -65 -8 -55 -10 -66 -16 -82 -13 -35
-42 -136 -44 -150 0 -8 -8 -29 -17 -46 -9 -17 -14 -34 -11 -37 3 -3 1 -13 -5
-24 -12 -22 -24 -54 -25 -68 -1 -5 -7 -20 -14 -33 -7 -12 -10 -27 -7 -32 3 -5
1 -11 -5 -15 -6 -3 -17 -21 -25 -38 -8 -18 -19 -39 -24 -47 -19 -29 -61 -124
-61 -136 0 -7 -3 -14 -7 -16 -13 -5 -63 -87 -63 -101 0 -8 -11 -26 -25 -41
-14 -15 -23 -31 -20 -36 3 -5 1 -11 -5 -15 -5 -3 -19 -25 -31 -48 -26 -54 -39
-76 -64 -111 l-21 -27 -99 25 c-192 48 -381 44 -466 -10 -56 -35 -97 -97 -197
-294 -49 -96 -122 -227 -163 -290 -134 -205 -177 -275 -184 -300 -5 -14 -17
-31 -28 -39 -22 -16 -203 -160 -251 -201 -106 -90 -139 -121 -209 -193 -144
-150 -177 -191 -507 -645 -50 -67 -90 -124 -90 -127 0 -8 -211 -317 -299 -438
-158 -218 -338 -469 -356 -498 -6 -9 -23 -36 -39 -60 -17 -24 -39 -66 -51 -94
-30 -75 -95 -186 -111 -192 -8 -3 -12 -9 -9 -13 3 -5 -18 -48 -48 -97 -29 -48
-68 -119 -87 -158 -18 -38 -35 -64 -38 -57 -2 6 4 26 12 44 9 17 14 33 11 36
-6 6 -38 -70 -58 -139 -9 -31 -70 -166 -136 -300 -266 -548 -340 -737 -495
-1274 -41 -143 -96 -330 -121 -415 -26 -85 -51 -191 -56 -235 -11 -94 -14
-584 -4 -765 3 -69 8 -154 9 -190 2 -36 6 -81 9 -100 4 -19 9 -80 12 -135 3
-55 9 -147 14 -205 5 -58 7 -108 5 -112 -2 -3 1 -8 7 -10 9 -3 9 -9 0 -26 -7
-13 -8 -22 -2 -22 9 0 28 -130 23 -157 -2 -7 3 -23 10 -35 7 -13 13 -30 14
-38 7 -55 15 -100 25 -130 18 -59 27 -110 18 -110 -5 0 -9 -5 -9 -11 0 -5 5
-7 12 -3 8 5 9 2 5 -9 -3 -9 -2 -19 4 -23 6 -3 8 -12 5 -19 -2 -7 -1 -30 4
-51 10 -41 5 -57 -10 -34 -6 9 -10 10 -10 3 0 -6 14 -27 30 -45 19 -20 28 -39
24 -48 -14 -33 -16 -50 -6 -50 6 0 13 10 16 23 3 12 3 -5 1 -37 -2 -32 -8 -63
-13 -68 -12 -12 -9 42 3 61 6 10 3 11 -12 3 -18 -10 -19 -8 -18 21 1 18 3 37
5 42 5 21 0 45 -11 45 -7 0 -8 -11 -4 -31 6 -24 4 -30 -6 -27 -10 3 -14 27
-15 84 0 55 -4 78 -12 77 -14 -3 -14 -1 -6 21 3 9 10 13 15 10 5 -3 9 0 9 5 0
16 -11 14 -32 -6 -22 -19 -36 -10 -18 12 9 11 9 15 1 15 -7 0 -9 4 -6 10 3 6
-1 7 -10 3 -11 -4 -13 -8 -5 -13 6 -3 8 -14 5 -23 -5 -10 3 -21 22 -33 15 -10
30 -19 32 -20 1 -2 -7 -13 -19 -26 l-23 -23 6 22 c6 26 -14 46 -37 37 -11 -4
-14 -13 -9 -32 4 -18 3 -23 -6 -18 -7 5 -11 18 -10 29 2 25 -15 72 -30 81 -20
13 -21 -14 -1 -34 13 -13 20 -33 20 -61 0 -22 -4 -38 -9 -35 -5 3 -7 15 -4 26
3 11 0 20 -6 20 -7 0 -9 9 -5 26 5 19 4 25 -5 20 -6 -4 -11 -14 -11 -22 0 -8
-4 -13 -9 -9 -11 6 -34 -29 -25 -38 3 -3 1 -8 -5 -12 -6 -3 -11 1 -11 10 0 36
-20 1 -21 -38 l-2 -42 -6 40 c-3 22 -3 41 0 43 9 4 -1 43 -14 60 -6 8 -6 17 2
26 8 9 8 21 2 37 -8 21 -10 21 -10 4 -1 -29 -18 -6 -25 35 -7 33 -6 34 9 16 8
-11 15 -15 15 -10 0 6 -12 21 -26 35 l-26 24 7 -27 c6 -24 4 -28 -15 -28 -14
0 -19 -4 -13 -12 4 -7 -5 -5 -20 5 -14 9 -40 17 -56 17 -16 0 -33 5 -36 10 -3
6 3 10 14 10 10 0 22 6 24 13 3 7 6 5 6 -5 1 -12 9 -18 24 -17 12 0 16 3 10 6
-10 3 -9 9 3 20 12 13 18 13 24 4 5 -9 9 -10 14 -2 4 6 0 14 -8 17 -11 4 -14
15 -10 37 3 22 2 26 -4 14 -4 -10 -11 -18 -15 -18 -20 2 -24 0 -24 -15 0 -14
2 -14 14 2 12 17 13 16 13 -5 0 -19 -4 -22 -22 -18 -13 3 -32 -1 -42 -9 -11
-8 -27 -14 -35 -13 -11 0 -12 2 -3 6 6 2 12 11 12 19 0 9 5 12 12 8 8 -5 9 -2
5 9 -3 10 -2 17 2 17 5 0 11 -6 14 -12 2 -7 8 -10 12 -6 13 12 -16 38 -41 38
-27 0 -32 15 -8 24 8 3 13 2 10 -3 -3 -5 3 -11 14 -14 23 -6 48 27 30 38 -5 3
-10 1 -10 -4 0 -6 -5 -11 -11 -11 -6 0 -9 7 -5 15 3 8 1 15 -4 15 -6 0 -10 -4
-10 -9 0 -5 -9 -11 -20 -14 -12 -3 -20 -14 -21 -29 -1 -20 -2 -20 -9 6 -5 16
-7 33 -4 38 3 4 0 8 -7 8 -6 0 -9 -8 -6 -19 3 -13 1 -18 -9 -14 -7 2 -10 12
-7 20 4 11 2 14 -5 9 -7 -4 -12 -1 -12 9 0 9 4 13 10 10 17 -11 40 9 30 25 -7
10 -10 11 -10 3 0 -7 -4 -13 -10 -13 -5 0 -7 15 -5 33 4 25 3 28 -4 12 l-10
-20 -1 20 c-1 18 -1 19 -11 3 -5 -10 -17 -18 -24 -18 -8 0 -15 -5 -15 -11 0
-7 9 -9 21 -6 15 4 19 2 15 -9 -3 -8 -1 -25 4 -39 7 -17 6 -25 -1 -25 -14 0
-2 -52 14 -62 7 -5 2 -8 -13 -8 -14 0 -20 -4 -14 -8 18 -12 24 -40 9 -46 -9
-3 -12 0 -8 10 3 9 -1 14 -11 14 -15 0 -15 2 0 31 12 24 13 33 4 39 -9 6 -10
16 -3 36 8 24 6 33 -9 49 -27 27 -41 55 -29 55 5 0 12 -6 14 -12 4 -8 6 -9 6
-2 1 6 -6 18 -16 25 -13 11 -17 11 -20 2 -3 -7 -12 -13 -20 -13 -13 0 -13 3
-3 15 10 12 10 15 -4 15 -9 0 -16 4 -16 9 0 13 41 10 59 -3 11 -9 13 -8 9 4
-6 18 14 40 37 40 9 0 13 5 10 10 -8 14 -52 13 -61 -2 -5 -7 -3 -8 6 -3 8 5
11 3 8 -6 -2 -7 -19 -15 -37 -17 -26 -3 -34 1 -38 17 -3 12 -9 18 -14 15 -5
-3 -7 -10 -4 -15 4 -5 -6 -4 -21 1 -32 12 -59 6 -48 -11 4 -7 3 -9 -4 -5 -5 3
-12 2 -14 -3 -1 -5 -10 -2 -18 7 -13 14 -12 15 2 9 31 -11 44 35 24 91 -5 15
-2 27 9 38 9 9 13 19 10 22 -3 3 -11 -3 -19 -13 -7 -10 -18 -15 -24 -11 -5 3
-12 1 -14 -6 -3 -7 -10 2 -16 20 -9 26 -8 32 3 32 11 0 14 12 12 50 -4 55 -12
72 -20 40 -3 -11 -2 -20 2 -20 4 0 6 -14 3 -31 -3 -20 -9 -29 -18 -25 -17 6
-19 -15 -3 -31 8 -8 4 -11 -15 -10 -24 2 -39 27 -16 27 6 0 10 5 10 10 0 17
-14 11 -28 -11 -10 -15 -11 -24 -3 -32 17 -17 13 -27 -9 -27 -15 0 -20 7 -20
29 0 16 6 32 13 34 9 4 8 8 -3 16 -8 6 -11 11 -7 11 4 0 2 6 -5 14 -20 21 -28
9 -17 -27 12 -43 11 -47 -5 -17 -8 14 -12 28 -10 32 3 4 -6 10 -20 14 -15 3
-26 15 -29 30 -5 27 -5 26 17 18 13 -5 14 -9 5 -20 -9 -11 -6 -14 15 -14 28 0
37 26 12 36 -11 4 -11 10 -2 30 6 13 14 24 19 24 11 0 8 -15 -5 -28 -14 -14 1
-16 21 -3 12 7 12 13 3 24 -7 7 -9 16 -6 19 3 4 8 20 10 36 5 29 -10 51 -24
37 -3 -3 -1 -10 7 -14 10 -7 10 -11 -2 -22 -7 -8 -12 -20 -9 -27 2 -6 -1 -12
-6 -12 -14 0 -22 38 -8 45 8 3 8 7 -1 11 -15 7 -17 41 -4 46 5 2 3 12 -5 23
-15 19 -15 19 -12 1 2 -10 -3 -21 -10 -23 -7 -3 -10 1 -6 10 5 15 -12 34 -22
24 -11 -10 -11 -61 -1 -78 6 -9 7 -24 2 -35 -7 -17 -9 -15 -15 11 -4 17 -8 24
-9 18 0 -7 -5 -13 -11 -13 -14 0 -12 28 3 33 6 2 8 8 4 13 -5 5 -13 1 -18 -9
-13 -22 -29 -22 -29 0 0 9 3 14 6 10 8 -8 34 18 34 35 0 10 -2 10 -9 -1 -10
-16 -71 -6 -71 12 0 8 -4 7 -9 -2 -12 -19 -2 -43 16 -37 8 4 11 1 7 -5 -4 -6
0 -15 7 -20 7 -4 10 -11 6 -15 -7 -7 -43 28 -49 48 -2 6 -16 11 -32 11 -32 0
-22 15 14 22 13 2 27 10 32 17 6 10 8 10 8 1 0 -7 4 -13 10 -13 5 0 7 13 3 32
-4 22 -3 29 5 24 7 -4 12 -15 12 -24 0 -12 3 -13 12 -4 9 9 6 17 -13 33 -19
18 -20 21 -5 15 12 -4 23 -2 27 6 10 16 16 10 25 -26 5 -21 4 -27 -4 -22 -8 5
-10 2 -6 -8 4 -10 1 -16 -9 -16 -17 0 -33 -18 -24 -27 3 -3 18 6 32 19 23 22
26 30 19 62 -5 30 -10 37 -25 33 -11 -3 -24 2 -30 11 -10 15 -10 15 -5 -1 3
-9 1 -17 -5 -17 -6 0 -19 -10 -29 -22 -15 -19 -20 -20 -34 -9 -9 7 -13 18 -10
23 4 6 0 14 -7 19 -12 8 -12 11 1 19 12 7 16 3 21 -23 8 -38 11 -32 13 23 1
38 -1 40 -22 35 -18 -4 -22 -2 -20 11 2 9 -3 19 -10 21 -7 3 -10 -1 -6 -11 3
-9 1 -16 -4 -16 -6 0 -12 10 -14 22 -2 12 -12 27 -24 33 -11 6 -19 16 -16 24
3 9 0 11 -8 6 -9 -5 -10 -2 -5 14 8 27 -1 27 -15 0 -9 -15 -8 -24 1 -35 7 -9
8 -14 1 -14 -6 0 -12 5 -14 12 -6 17 -28 0 -28 -22 0 -10 -4 -21 -10 -25 -5
-3 -8 7 -7 24 1 16 4 28 6 26 7 -8 28 22 34 50 l7 30 -17 -27 c-19 -31 -39
-42 -48 -28 -4 6 -1 10 5 10 15 0 41 27 38 39 -2 5 6 16 16 24 12 9 16 19 11
27 -6 9 -15 1 -32 -26 l-23 -39 4 50 c2 28 7 59 11 70 6 16 5 17 -4 5 -9 -13
-11 -12 -11 5 0 16 -2 17 -10 5 -5 -9 -5 -19 2 -27 15 -19 -19 -29 -44 -14
-16 10 -19 10 -16 0 3 -8 15 -16 28 -19 33 -8 38 -29 5 -23 -15 3 -25 1 -25
-6 0 -7 7 -11 16 -9 9 2 20 -7 25 -19 7 -18 4 -25 -14 -34 -18 -9 -20 -9 -9 2
18 20 15 39 -8 39 -12 0 -20 -7 -20 -17 0 -15 -1 -15 -13 2 -9 11 -19 15 -27
10 -9 -5 -11 -4 -6 4 4 6 14 10 21 9 14 -3 15 -2 15 34 l0 21 -25 -23 c-14
-13 -25 -19 -25 -12 0 6 14 20 30 32 17 12 30 29 30 38 1 16 2 16 14 0 17 -23
26 -23 26 0 0 10 9 28 21 41 17 18 24 20 35 10 8 -6 17 -9 21 -5 3 3 4 7 2 9
-32 19 -69 34 -64 27 11 -17 -14 -49 -50 -61 -19 -7 -35 -19 -35 -26 0 -7 -4
-13 -8 -13 -10 0 -37 -50 -34 -62 3 -12 -8 -9 -24 6 -8 8 -14 21 -13 28 0 10
2 10 6 1 9 -23 25 -14 18 10 -5 17 -4 19 4 7 10 -13 12 -13 21 0 5 8 10 32 10
54 0 29 -3 37 -14 33 -8 -3 -17 -3 -20 0 -9 9 14 43 29 43 8 0 15 5 15 10 0 6
5 10 10 10 6 0 10 -9 10 -21 0 -11 4 -18 10 -14 13 8 -5 51 -21 47 -7 -2 -16
3 -20 10 -7 10 -9 9 -9 -4 0 -10 -4 -18 -10 -18 -5 0 -10 -7 -10 -15 0 -16
-12 -20 -23 -8 -4 3 -2 12 5 20 18 22 3 24 -20 3 -12 -12 -22 -17 -22 -12 0 6
-10 12 -22 15 -12 4 -19 9 -16 12 3 4 16 2 27 -5 18 -9 22 -8 28 6 4 10 2 19
-5 22 -14 4 -17 42 -4 42 5 0 14 -11 20 -25 6 -14 16 -25 22 -25 6 0 8 5 5 10
-3 6 1 10 10 10 9 0 13 4 10 10 -3 6 -15 10 -26 10 -26 0 -24 15 2 17 23 2 35
10 27 18 -2 3 -19 0 -37 -6 -35 -12 -48 -8 -35 12 10 16 15 60 8 71 -3 5 -10
6 -15 2 -6 -4 -6 -11 2 -20 6 -8 8 -14 3 -14 -14 0 -29 14 -30 28 -2 30 -5 34
-19 28 -19 -7 -69 15 -73 32 -1 7 5 15 13 18 8 4 15 15 15 25 0 10 5 19 10 19
14 0 12 -13 -5 -36 -19 -26 -19 -33 3 -27 14 3 18 13 17 38 -1 40 -12 55 -25
35 -16 -27 -29 10 -16 48 5 15 2 27 -9 38 -12 13 -13 19 -5 24 7 4 10 14 8 21
-3 10 -9 7 -17 -9 -11 -20 -10 -27 3 -41 16 -17 13 -51 -4 -51 -4 0 -5 -11 -2
-25 2 -14 8 -25 13 -25 5 0 9 -4 9 -10 0 -6 -17 -8 -40 -5 -27 4 -40 1 -40 -7
0 -6 -2 -9 -5 -6 -11 10 7 58 21 58 8 0 11 -6 8 -15 -4 -10 0 -15 11 -15 12 0
15 5 10 20 -3 10 -1 29 5 41 10 17 9 23 -1 30 -14 9 -42 -8 -34 -21 3 -4 -3
-14 -11 -21 -15 -12 -16 -10 -9 21 4 19 14 39 21 43 12 7 12 11 -1 24 -9 8
-19 12 -23 8 -4 -4 -1 -10 6 -12 6 -3 10 -9 6 -14 -10 -17 -22 -9 -27 21 -5
21 -12 30 -27 30 -11 0 -20 5 -20 11 0 6 6 9 12 6 7 -2 22 3 32 12 18 15 19
15 12 -11 -5 -23 -3 -28 13 -28 11 0 23 -5 26 -10 9 -14 35 7 35 26 0 17 17
18 23 2 4 -10 6 -10 6 -1 1 17 -36 36 -44 23 -4 -6 -4 -17 -1 -25 3 -9 0 -12
-10 -8 -17 6 -19 30 -3 35 20 7 0 48 -23 48 -14 0 -18 5 -15 15 7 17 -9 30
-18 15 -4 -6 -11 -7 -17 -4 -6 4 -9 -7 -6 -31 3 -34 1 -38 -24 -41 l-27 -3 19
22 c24 25 24 31 4 62 -15 22 -15 26 0 40 15 15 16 14 16 -11 0 -35 12 -23 17
17 2 18 -1 28 -7 24 -6 -3 -10 -1 -10 4 0 6 -4 11 -10 11 -5 0 -10 -9 -10 -20
0 -15 -7 -20 -26 -20 -19 0 -25 -4 -20 -15 6 -16 -3 -19 -28 -9 -20 8 -21 24
-1 24 8 0 15 5 15 10 0 6 3 9 8 9 23 -4 42 2 37 12 -4 6 -13 8 -21 5 -8 -3
-14 -1 -14 3 0 5 5 11 11 13 17 6 14 138 -3 138 -4 0 -8 7 -8 15 0 8 -5 15
-10 15 -7 0 -7 -7 0 -20 6 -12 8 -29 5 -40 -3 -10 -1 -21 5 -25 16 -10 12 -25
-5 -18 -9 3 -15 2 -14 -3 4 -24 -3 -34 -26 -34 -26 0 -32 14 -15 40 8 13 10
12 10 -2 0 -10 4 -18 9 -18 4 0 8 10 7 22 -1 19 -6 22 -29 20 -28 -3 -37 12
-13 21 15 6 12 67 -5 99 -11 20 -9 21 15 12 9 -3 16 -15 16 -25 0 -28 15 -23
16 6 1 13 -1 24 -5 23 -24 -3 -32 4 -26 22 5 14 2 20 -9 20 -9 0 -16 5 -16 10
0 6 -14 10 -31 10 -34 0 -58 22 -59 53 0 9 -11 22 -24 29 -14 6 -28 18 -31 27
-5 13 -4 14 6 4 15 -15 33 -17 24 -3 -3 6 -1 10 4 10 6 0 11 5 11 11 0 6 -7 9
-15 5 -8 -3 -15 -1 -15 4 0 15 -28 12 -33 -2 -4 -10 -7 -10 -18 0 -10 9 -10
12 0 12 7 0 19 7 27 15 14 13 14 15 -3 12 -43 -7 -72 -44 -50 -66 8 -8 8 -11
-1 -11 -13 0 -13 0 -17 47 -1 18 -9 43 -17 55 -12 19 -15 47 -9 78 1 3 6 -3
12 -13 8 -13 7 -22 -1 -33 -10 -11 -9 -14 3 -14 17 0 30 27 17 35 -5 3 -7 12
-3 20 3 9 -1 15 -11 15 -9 0 -16 5 -16 11 0 6 7 9 15 5 10 -3 15 1 15 13 0 11
5 21 12 23 14 5 2 28 -15 28 -7 0 -6 -4 3 -10 8 -5 10 -10 4 -10 -22 0 -22 13
1 56 14 27 19 46 13 50 -5 3 -8 15 -5 25 3 10 2 18 -2 17 -29 -3 -51 4 -51 18
0 13 -6 15 -27 10 l-28 -7 23 16 c30 22 29 45 -3 45 -19 0 -28 9 -41 38 -9 20
-18 31 -21 25 -3 -7 -9 -13 -14 -13 -14 0 -11 26 5 40 22 17 8 43 -20 37 -15
-2 -24 1 -24 8 0 8 9 10 25 7 25 -4 35 11 15 23 -12 7 -13 25 -2 25 4 0 13
-13 19 -30 10 -26 43 -43 43 -22 0 4 16 7 35 7 19 -1 40 3 47 8 8 5 -2 7 -29
4 -24 -3 -46 -1 -49 5 -4 6 -9 6 -14 -2 -4 -7 -13 -9 -19 -5 -9 5 -9 11 1 23
7 9 8 13 3 10 -6 -4 -19 0 -30 8 -18 13 -18 15 -3 31 15 15 18 15 33 -1 9 -9
22 -16 28 -15 9 0 8 2 0 6 -7 2 -13 9 -13 15 0 6 7 7 16 4 14 -6 15 -4 4 9 -7
9 -16 12 -19 7 -8 -11 -51 -10 -51 2 0 6 -5 5 -12 -2 -17 -17 -41 -15 -34 3 3
9 0 15 -9 15 -8 0 -15 5 -15 10 0 6 8 10 18 10 28 0 56 25 47 40 -6 10 -10 8
-17 -9 -5 -13 -15 -21 -25 -20 -34 5 -58 -10 -59 -37 -2 -17 2 -24 11 -20 15
5 65 -15 65 -26 0 -5 -9 -8 -20 -8 -11 0 -20 5 -20 10 0 16 -23 11 -50 -10
-14 -11 -32 -19 -40 -19 -8 0 -2 7 13 15 19 10 27 21 23 31 -3 8 -3 20 1 26 4
7 8 19 8 27 0 8 6 14 14 12 8 -2 11 3 8 13 -4 8 -1 15 5 15 7 0 6 5 -2 15 -6
8 -9 18 -7 22 3 5 -6 10 -19 11 -16 1 -23 -2 -18 -9 4 -8 0 -8 -15 0 -25 14
-28 23 -3 14 15 -6 15 -5 3 10 -7 9 -17 14 -22 11 -17 -10 -50 -13 -44 -3 4 5
13 9 21 9 8 0 14 5 14 11 0 6 6 9 13 6 6 -2 19 2 29 10 14 13 17 12 23 -6 3
-12 3 -25 0 -31 -3 -5 0 -10 8 -10 16 0 18 29 3 48 -41 49 -61 57 -51 20 6
-22 6 -22 -9 -4 -18 22 -21 40 -6 31 6 -3 10 -1 10 5 0 7 8 9 19 5 11 -3 22
-1 26 5 4 6 16 15 26 18 18 7 18 9 4 27 -11 15 -13 15 -9 4 8 -25 -15 -34 -31
-13 -8 11 -15 14 -15 8 0 -5 6 -16 13 -23 10 -10 8 -12 -8 -9 -15 3 -20 11
-18 31 2 33 -20 36 -34 6 -6 -14 -20 -23 -39 -25 -24 -2 -26 -1 -13 9 9 7 14
19 11 27 -2 9 2 7 12 -5 19 -25 21 -7 2 29 l-14 27 -6 -26 c-4 -17 -13 -25
-29 -26 -12 0 -16 -3 -9 -6 14 -5 17 -43 3 -43 -5 0 -12 16 -16 36 -3 20 -9
33 -12 30 -3 -3 -13 0 -21 7 -13 10 -15 9 -8 -8 6 -16 5 -18 -5 -7 -22 21 3
33 35 17 36 -19 50 -19 42 1 -3 8 -2 12 4 9 6 -3 10 -1 10 4 0 6 -5 11 -11 11
-5 0 -7 4 -4 10 3 5 -2 22 -11 37 -13 23 -11 22 15 -7 26 -29 33 -32 41 -20 5
8 10 18 10 21 0 4 10 10 23 14 19 6 20 8 4 12 -10 3 -24 -1 -32 -7 -16 -14
-18 -10 -9 14 3 9 12 16 20 16 8 0 14 5 14 10 0 6 10 8 24 4 13 -3 27 -1 30 4
4 6 -13 9 -44 8 -47 -3 -49 -1 -55 26 -4 15 -11 26 -16 22 -5 -3 -9 5 -9 18
l1 23 19 -24 c15 -17 20 -19 20 -8 0 9 -5 19 -10 22 -5 3 -10 11 -10 16 0 6 4
8 9 4 5 -3 13 0 16 6 4 5 13 8 21 5 17 -6 17 -1 4 25 -7 13 -7 19 0 19 14 0
13 13 -5 36 -15 18 -15 18 -9 -9 5 -21 2 -27 -10 -27 -9 0 -16 -5 -16 -11 0
-6 7 -8 16 -5 10 4 14 1 12 -6 -3 -7 -11 -13 -19 -13 -8 0 -20 -6 -28 -13 -22
-21 -23 -7 -2 31 19 35 19 35 -1 29 -13 -3 -18 -11 -15 -23 3 -12 0 -19 -8
-19 -11 0 -12 6 -4 30 10 26 25 35 52 31 4 0 7 3 7 9 0 5 -9 10 -20 10 -14 0
-20 6 -19 23 0 12 3 16 6 10 2 -7 14 -13 26 -12 12 0 16 3 10 6 -7 2 -13 10
-13 18 0 7 -11 13 -25 13 -14 0 -25 -4 -25 -9 0 -5 -10 -9 -22 -8 -21 0 -22 1
-4 8 19 7 19 8 -2 13 -12 4 -25 2 -28 -3 -3 -5 -10 -9 -15 -9 -5 0 -2 12 7 26
13 19 19 22 26 12 8 -10 9 -10 5 2 -2 8 -1 24 4 35 7 17 8 16 8 -7 1 -28 23
-39 36 -18 3 6 3 10 -2 10 -12 0 -44 60 -37 71 9 15 24 10 24 -8 0 -15 2 -14
15 4 17 25 10 53 -14 53 -14 -1 -14 -2 1 -11 10 -5 18 -15 18 -21 0 -6 -11 -3
-25 6 l-24 16 -7 -49 c-4 -34 -14 -57 -30 -72 -14 -13 -24 -17 -24 -10 0 7 -4
10 -9 6 -5 -3 -13 0 -17 6 -4 8 -3 9 4 5 7 -4 12 -2 12 5 0 8 4 8 15 -1 12
-10 15 -10 15 4 0 9 4 16 9 16 6 0 9 8 8 18 -1 18 -26 26 -37 13 -3 -4 -16
-11 -30 -17 -20 -9 -28 -8 -38 3 -12 12 -9 13 13 7 24 -6 27 -4 21 15 -3 11
-8 31 -11 44 l-6 22 14 -23 c13 -23 14 -22 24 22 8 35 7 46 -3 50 -7 3 -15 -2
-18 -10 -4 -9 -2 -12 5 -8 7 4 10 1 7 -7 -3 -8 -9 -14 -14 -14 -5 0 -18 -6
-29 -12 -16 -9 -17 -13 -6 -27 8 -9 11 -19 8 -22 -9 -9 -29 35 -21 47 4 6 0
15 -7 20 -9 7 -5 7 14 3 21 -5 26 -3 22 9 -9 22 19 44 57 42 26 -1 34 -6 36
-23 2 -12 8 -20 13 -16 6 3 17 0 25 -7 13 -10 17 -10 25 2 13 21 11 29 -7 29
-8 0 -12 -4 -9 -10 14 -22 -15 -8 -35 17 -15 19 -20 38 -18 61 3 20 0 31 -6
29 -6 -2 -11 -15 -11 -30 0 -14 -3 -29 -8 -33 -4 -4 -7 0 -7 9 0 8 -11 24 -25
35 -14 11 -25 25 -25 31 0 18 28 13 33 -6 4 -15 5 -14 6 3 0 11 6 25 13 32 15
15 48 16 48 1 0 -6 -7 -8 -17 -4 -13 4 -12 1 5 -15 15 -14 29 -19 42 -15 11 4
20 2 20 -4 0 -6 4 -11 8 -11 4 0 8 8 8 18 0 10 -8 18 -18 18 -10 0 -18 -4 -18
-9 0 -4 -5 -5 -10 -2 -10 6 -2 56 10 65 4 3 1 11 -7 19 -12 11 -14 11 -12 0 3
-25 -2 -54 -8 -41 -2 6 -8 10 -13 7 -4 -3 -10 10 -12 29 -3 25 0 32 9 29 9 -3
11 0 7 10 -7 18 -33 31 -35 17 -5 -35 -3 -67 4 -63 15 9 6 -20 -10 -33 -22
-16 -33 -17 -33 -4 0 6 7 10 15 10 17 0 18 6 5 35 -8 19 -9 19 -9 -2 -1 -13
-6 -23 -12 -23 -5 0 -7 5 -3 11 5 8 -3 10 -28 5 -31 -6 -35 -4 -34 16 1 13 6
26 11 31 6 4 0 15 -15 28 -24 20 -24 20 -2 14 13 -4 22 -2 22 4 0 6 -9 11 -19
11 -10 0 -21 7 -25 15 -4 12 0 14 18 9 17 -4 25 0 30 12 4 10 3 20 -2 23 -17
12 -21 57 -7 84 8 15 10 25 5 22 -6 -4 -10 5 -10 19 0 14 5 26 11 26 6 0 9 -6
6 -14 -4 -9 3 -16 16 -20 19 -5 20 -8 6 -16 -17 -10 -21 -90 -4 -90 6 0 10 15
10 34 0 50 12 54 20 7 9 -57 20 -58 21 -3 1 33 -1 41 -6 27 -8 -19 -9 -19 -9
1 -1 12 -8 27 -16 34 -8 7 -15 21 -15 31 0 11 -5 19 -12 19 -6 0 -8 3 -5 6 4
4 14 1 23 -7 15 -12 17 -12 13 0 -3 8 -14 19 -25 25 -10 6 -22 15 -25 20 -4 4
-10 3 -13 -3 -4 -6 -2 -11 3 -11 6 0 11 -4 11 -10 0 -5 -6 -10 -13 -10 -9 0
-12 -11 -10 -32 4 -37 -15 -79 -37 -85 -12 -4 -12 -3 -2 5 22 15 9 46 -28 64
-28 14 -31 18 -13 18 12 0 25 -4 28 -10 8 -12 16 -12 34 -1 11 7 10 13 -4 35
-15 23 -14 30 6 28 12 -2 31 56 23 69 -4 8 -3 10 4 5 7 -4 12 -3 12 3 0 21
-21 21 -30 -1 -9 -21 -10 -21 -7 7 2 26 5 30 29 27 14 -2 29 2 33 8 5 9 1 10
-13 6 -24 -8 -38 9 -23 28 6 7 8 16 4 19 -3 4 1 7 9 7 11 0 14 -6 11 -20 -3
-11 0 -20 6 -20 12 0 15 12 11 44 -1 10 4 23 12 27 11 7 11 9 -1 9 -8 0 -20 8
-27 17 -7 10 -16 14 -21 10 -4 -5 1 -15 11 -23 11 -7 18 -15 15 -17 -20 -14
-81 -36 -71 -26 14 15 16 33 2 24 -6 -4 -7 1 -3 11 6 16 7 16 18 0 7 -9 15
-16 18 -16 13 0 -8 36 -35 59 -16 13 -27 26 -24 28 3 3 -1 12 -9 20 -17 17
-20 47 -4 37 6 -3 18 -23 26 -43 l16 -36 17 39 c9 24 19 35 23 29 4 -7 3 -14
-3 -18 -5 -3 -10 -12 -10 -18 0 -9 2 -9 8 1 5 7 33 13 64 15 56 2 67 10 28 20
-11 3 -23 1 -26 -4 -12 -20 -66 13 -69 41 -2 15 -25 44 -31 38 -4 -4 1 -19 10
-33 15 -23 15 -27 2 -41 -8 -8 -12 -22 -9 -32 3 -9 3 -14 -1 -11 -4 4 -8 16
-11 27 -2 12 -13 31 -24 43 -23 25 -19 42 15 57 13 7 24 19 24 27 0 9 5 13 11
9 8 -4 9 1 4 17 -10 31 -11 32 -25 24 -9 -6 -9 -10 1 -16 11 -7 11 -9 1 -9
-21 0 -52 20 -52 33 0 7 4 6 10 -3 7 -12 12 -12 21 -3 7 7 14 18 15 25 2 7 7
27 13 43 8 25 9 26 10 8 1 -13 6 -23 12 -23 5 0 9 10 7 22 -2 11 2 23 8 25 6
2 10 -12 10 -31 0 -27 -5 -36 -20 -39 -19 -4 -19 -4 2 -6 25 -1 30 8 34 59 3
30 0 35 -17 32 -55 -7 -65 -13 -65 -35 0 -28 -15 -51 -27 -44 -6 4 -16 -5 -24
-19 -12 -24 -12 -28 10 -45 13 -10 18 -19 12 -19 -6 0 -20 9 -31 20 l-21 21
21 30 c12 16 26 27 31 24 5 -4 9 6 9 20 0 25 20 55 37 55 4 0 9 11 9 25 1 17
-7 32 -27 46 -33 23 -36 34 -13 43 12 4 14 1 9 -14 -5 -15 -2 -20 14 -20 11 0
22 4 26 10 3 5 12 7 20 4 9 -4 16 4 21 23 4 15 11 31 17 34 5 4 5 9 -2 13 -6
4 -11 2 -11 -3 0 -6 -7 -11 -15 -11 -8 0 -15 7 -15 16 0 9 -5 14 -12 12 -22
-8 -20 -28 4 -37 17 -7 18 -10 6 -10 -10 -1 -18 -9 -18 -18 0 -15 -2 -16 -9
-3 -6 8 -7 18 -5 22 3 4 0 8 -5 8 -11 0 -10 35 2 46 4 4 7 11 7 16 0 12 -43
-1 -52 -16 -5 -7 -8 -4 -8 7 0 9 5 17 11 17 5 0 8 4 4 9 -3 5 -1 12 5 16 5 3
10 1 10 -4 0 -6 5 -11 10 -11 6 0 10 9 10 21 0 11 5 17 10 14 6 -3 10 1 10 9
0 9 -4 16 -8 16 -12 0 -8 31 6 55 10 17 11 16 7 -15 -4 -30 -3 -31 4 -10 5 14
9 39 10 57 1 31 21 59 21 29 0 -9 5 -16 11 -16 7 0 8 11 4 29 -3 17 -2 32 4
36 6 3 12 1 12 -4 1 -6 3 -15 4 -21 1 -5 3 -14 4 -20 0 -5 10 -10 20 -10 11 0
22 -6 24 -12 4 -10 6 -10 6 0 1 8 -8 16 -20 19 -15 4 -20 12 -16 29 2 13 0 21
-4 18 -5 -3 -9 2 -9 10 0 18 -2 19 -24 10 -9 -3 -16 -15 -16 -25 0 -10 -4 -19
-10 -19 -5 0 -10 11 -10 24 0 13 -3 31 -6 40 -4 10 -1 16 10 16 10 0 13 6 10
15 -6 14 -8 13 -21 -2 -14 -17 -14 -17 -8 2 4 11 10 28 12 38 3 9 12 17 20 17
12 0 13 -3 4 -13 -15 -19 -2 -29 15 -12 17 16 7 48 -12 41 -8 -3 -14 1 -14 9
0 8 4 15 9 15 5 0 7 10 3 22 -3 14 -2 19 6 14 14 -8 15 -4 6 18 -3 9 -13 16
-20 16 -8 0 -24 9 -36 20 -23 21 -38 26 -38 11 0 -12 30 -36 31 -25 1 5 4 -2
8 -16 9 -31 -14 -59 -32 -41 -8 8 -8 11 1 11 19 0 14 25 -12 53 -14 15 -20 30
-16 37 4 7 6 26 3 42 -3 20 -1 28 6 23 6 -3 11 -19 11 -36 0 -16 4 -29 9 -29
15 0 23 18 11 25 -7 4 -6 14 2 28 7 12 11 25 10 30 -1 4 5 7 13 7 8 0 15 -4
15 -10 0 -5 -4 -10 -9 -10 -5 0 -11 -9 -14 -20 -3 -11 -1 -18 4 -14 13 8 11
-20 -3 -34 -9 -9 -8 -12 5 -12 9 0 17 -6 17 -12 0 -9 4 -8 10 2 12 18 13 33 2
26 -4 -3 -9 11 -9 30 -1 19 4 34 9 34 6 0 5 6 -2 15 -7 8 -21 15 -31 15 -11 0
-19 6 -19 14 0 8 -3 23 -6 33 -3 10 4 5 16 -12 19 -27 21 -27 15 -6 -6 21 -5
23 14 18 16 -4 25 1 36 21 8 15 14 23 15 17 0 -13 20 16 20 30 0 6 -4 4 -9 -4
-11 -16 -31 -6 -31 16 0 9 -6 13 -15 9 -8 -3 -15 -1 -15 5 0 6 -4 7 -10 4 -6
-3 -7 1 -4 9 5 12 10 13 26 5 23 -12 39 -2 18 11 -23 15 -33 12 -62 -15 -29
-26 -48 -32 -48 -14 0 5 -4 8 -8 5 -4 -2 -14 -1 -21 3 -9 6 -10 11 -2 15 6 4
11 2 11 -5 0 -10 3 -10 11 -2 9 9 8 16 -5 28 -9 9 -16 12 -16 7 0 -6 -8 -13
-17 -16 -16 -6 -16 -6 0 12 10 11 15 27 12 38 -4 13 -2 12 6 -3 12 -24 29 -31
29 -13 0 15 17 12 23 -4 4 -10 1 -13 -9 -9 -7 3 -14 0 -14 -6 0 -6 5 -11 11
-11 8 0 8 -5 -1 -15 -8 -9 -9 -15 -2 -15 6 0 14 5 17 10 4 6 11 8 16 4 7 -4 9
7 5 30 -6 36 6 50 18 21 6 -17 26 -21 26 -5 0 5 -9 17 -20 28 -23 21 -29 68
-11 100 12 23 35 29 46 12 4 -6 11 -7 17 -4 7 4 5 10 -6 16 -20 11 -21 34 0
42 27 10 40 6 21 -8 -16 -12 -16 -15 -2 -26 13 -11 16 -11 13 1 -2 8 4 13 14
13 14 -1 16 2 7 17 -27 51 -99 5 -133 -84 -16 -42 -36 -63 -36 -37 0 6 5 10
10 10 6 0 10 5 10 10 0 6 -3 9 -7 8 -11 -4 -14 9 -6 29 4 9 1 19 -5 21 -7 2
-12 8 -12 13 0 6 4 8 9 5 5 -4 12 0 14 6 3 7 6 -5 7 -27 l1 -40 15 39 c7 21
11 42 8 48 -8 12 16 39 28 32 6 -4 5 -10 -3 -15 -7 -4 -10 -11 -6 -16 9 -8 27
15 27 35 0 6 -7 12 -15 12 -8 0 -15 7 -15 15 0 8 -4 15 -10 15 -5 0 -10 11
-10 24 0 19 4 23 20 19 14 -4 20 0 20 12 0 13 3 15 13 6 11 -8 16 -5 25 15 15
31 15 61 2 69 -7 4 -7 13 -1 24 10 18 11 61 1 61 -3 0 -12 -5 -20 -10 -10 -6
-11 -10 -2 -10 6 0 12 -9 12 -20 0 -11 -7 -20 -15 -20 -8 0 -15 -5 -15 -11 0
-5 5 -7 10 -4 6 3 10 1 10 -4 0 -6 -2 -11 -4 -11 -2 0 -12 -3 -20 -6 -12 -5
-15 -2 -10 11 4 10 1 20 -6 25 -10 6 -10 15 0 46 8 22 15 34 17 28 4 -13 43
-7 43 7 0 12 47 11 55 -1 3 -5 11 -10 17 -10 7 0 6 5 -1 14 -9 11 -9 16 0 21
8 6 8 10 -2 15 -9 6 -10 14 -1 37 15 37 11 94 -10 124 -14 19 -17 21 -17 7 -1
-10 4 -18 9 -18 14 0 12 -27 -2 -34 -11 -5 -11 -7 0 -12 19 -9 15 -54 -5 -55
-11 0 -13 -3 -5 -6 6 -2 12 -11 12 -19 0 -11 -4 -12 -18 -3 -21 13 -24 90 -4
97 7 2 12 11 12 19 0 9 -6 13 -14 10 -16 -6 -40 16 -29 26 3 4 -1 7 -10 7 -21
0 -21 1 -2 -43 18 -42 20 -71 3 -42 -6 11 -19 26 -27 33 -10 8 -10 11 -2 6 11
-5 12 -1 7 21 -5 18 -3 31 5 36 17 10 39 0 39 -20 0 -14 2 -14 10 -1 13 21 13
73 -1 65 -6 -4 -8 -14 -5 -22 3 -8 1 -11 -4 -8 -6 3 -10 15 -10 26 0 14 7 19
27 19 26 0 26 1 7 16 -18 14 -18 15 6 8 35 -9 38 -14 16 -30 -17 -12 -18 -14
-3 -14 19 0 23 -16 5 -22 -6 -2 -8 -10 -4 -17 6 -9 11 -8 21 5 7 10 19 15 29
11 13 -5 15 -2 11 21 -3 15 -2 21 1 14 3 -6 10 -10 15 -6 5 3 9 0 9 -5 0 -6 6
-11 13 -11 6 1 2 9 -11 20 -13 11 -30 16 -40 13 -9 -3 -14 -3 -10 1 11 13 -15
33 -37 28 -11 -3 -17 -1 -12 3 13 15 50 16 59 3 6 -10 8 -10 8 0 0 23 -5 27
-35 27 -17 0 -30 6 -31 13 -1 6 -2 23 -3 37 0 15 -7 25 -16 25 -8 0 -15 5 -15
11 0 5 5 7 11 3 9 -5 10 1 5 22 -5 21 -4 25 4 14 8 -12 10 -10 10 10 0 14 4
20 8 14 4 -6 15 -13 24 -17 24 -9 23 -26 -1 -20 -19 5 -38 -13 -26 -25 3 -3
10 0 14 7 13 21 49 -4 54 -36 3 -22 4 -20 6 10 0 21 -3 36 -8 33 -5 -4 -12 7
-16 24 -4 16 -10 28 -13 27 -11 -3 -62 40 -55 46 3 4 14 -5 25 -18 11 -15 25
-22 34 -18 11 4 12 9 5 16 -16 16 -13 27 5 27 10 0 14 -6 10 -15 -3 -8 -1 -15
4 -15 6 0 10 7 10 15 0 8 6 12 14 9 11 -4 10 3 -4 31 -10 20 -16 44 -12 53 6
14 7 13 10 -6 2 -12 8 -20 13 -17 14 10 11 37 -7 50 -9 6 -18 22 -19 36 -4 38
-4 39 -19 39 -19 0 -29 30 -15 46 9 11 8 18 -1 30 -12 13 -10 14 13 3 19 -8
25 -18 23 -33 -2 -12 -9 -20 -16 -18 -6 1 -8 -2 -5 -8 4 -6 14 -9 22 -6 10 4
13 2 10 -8 -6 -16 21 -81 30 -72 3 3 1 19 -5 35 -10 29 -8 35 11 32 4 0 7 10
7 23 0 28 26 42 47 25 7 -7 16 -9 19 -6 9 9 -36 29 -52 23 -8 -3 -14 -1 -14 3
0 5 5 11 12 13 7 3 12 24 13 53 0 32 5 50 14 53 9 3 11 0 6 -8 -5 -8 -3 -11 6
-8 8 3 14 12 13 19 -1 8 5 20 12 27 11 10 14 10 14 -2 0 -9 9 -20 20 -26 12
-6 20 -7 20 -1 0 5 -5 11 -12 13 -8 3 -7 13 4 35 14 28 14 30 -3 26 -11 -3
-16 -11 -13 -21 3 -10 -1 -6 -9 7 l-15 24 -12 -24 c-16 -29 -40 -54 -40 -40 0
5 -9 11 -20 13 l-21 3 21 17 c19 17 20 17 20 -3 0 -17 2 -18 13 -7 8 7 17 26
21 41 6 24 9 27 21 17 8 -7 20 -10 27 -7 7 3 -2 11 -21 19 -20 10 -29 18 -22
22 6 4 8 12 5 18 -4 6 -1 9 7 6 8 -3 13 -12 11 -22 -4 -21 14 -21 22 0 9 24 7
34 -5 32 -6 -2 -14 4 -16 12 -4 13 -3 13 6 0 9 -13 11 -13 11 3 0 9 5 17 12
17 9 0 9 3 1 11 -16 16 9 41 31 33 19 -7 21 -40 4 -50 -8 -5 -9 0 -6 14 4 15
2 22 -8 22 -8 0 -11 -6 -8 -15 4 -8 0 -23 -7 -32 -12 -15 -12 -16 6 -9 16 6
18 5 7 -5 -6 -7 -12 -21 -12 -31 0 -10 -6 -18 -12 -19 -7 0 -3 -4 10 -9 12 -5
27 -20 32 -32 5 -14 9 -17 9 -8 1 9 -4 21 -11 28 -15 15 -3 16 23 2 24 -13 25
-2 2 16 -12 8 -22 9 -29 3 -16 -13 6 52 25 74 9 12 10 21 2 36 -14 25 -14 34
-1 26 6 -3 7 1 4 9 -7 18 -24 21 -24 5 0 -8 -4 -9 -13 0 -8 6 -17 8 -21 4 -9
-9 -27 18 -20 29 9 14 34 9 34 -7 0 -8 5 -15 10 -15 6 0 10 4 10 8 0 5 10 14
23 20 14 7 17 11 6 11 -8 1 -20 -4 -26 -10 -8 -8 -13 -8 -18 0 -3 6 1 14 9 17
21 8 20 24 -1 40 -26 19 -43 17 -43 -6 0 -11 5 -20 10 -20 6 0 10 -4 10 -10 0
-20 -17 -10 -29 17 -9 19 -9 29 -2 31 13 4 15 32 2 32 -5 0 -13 -9 -16 -20 -3
-11 -11 -20 -16 -20 -13 0 -11 17 4 24 9 5 9 7 0 12 -14 6 -18 25 -5 23 32 -5
46 23 16 35 -10 4 -13 13 -9 25 4 14 0 23 -15 31 -11 6 -20 15 -20 21 0 6 13
0 29 -13 18 -14 28 -29 25 -40 -3 -9 -1 -19 4 -22 6 -3 13 -22 16 -42 6 -29
10 -33 22 -24 20 17 18 44 -6 65 -15 14 -17 21 -9 32 8 9 8 13 1 13 -6 0 -9 6
-7 13 4 8 -14 19 -46 30 -28 10 -49 21 -46 24 3 2 15 0 26 -7 12 -6 26 -8 31
-5 6 3 10 1 10 -5 0 -7 6 -10 13 -7 6 2 11 11 9 21 -2 9 2 16 8 16 9 0 15 -36
11 -67 -1 -7 7 -13 19 -13 12 0 20 -7 20 -16 0 -13 -3 -14 -13 -5 -8 6 -17 8
-20 4 -23 -22 17 -38 46 -18 12 8 16 15 9 15 -6 0 -12 7 -12 15 0 18 41 20 58
3 7 -7 12 -9 12 -4 0 4 -7 14 -15 22 -8 9 -15 20 -15 25 0 6 7 3 16 -6 14 -13
19 -14 25 -3 12 18 11 28 -2 28 -5 0 -7 -4 -4 -10 3 -5 1 -10 -4 -10 -12 0
-13 45 -2 74 5 13 10 16 15 8 4 -6 2 -21 -4 -32 -8 -15 -8 -20 3 -20 19 0 21
59 2 66 -8 4 -15 12 -15 20 0 19 10 18 26 -3 11 -15 13 -16 14 -3 0 9 -5 21
-12 28 -9 9 -9 15 -1 23 16 16 27 -40 18 -91 -4 -26 -3 -40 4 -40 6 0 8 8 5
18 -5 16 -5 16 9 -1 12 -15 16 -15 20 -3 3 8 1 17 -6 20 -7 2 -5 5 5 5 9 1 20
6 24 12 5 9 -1 10 -20 5 -23 -6 -26 -3 -26 18 0 14 5 28 11 31 7 5 6 12 -3 23
-8 10 -14 24 -13 32 1 8 3 21 3 28 1 6 7 12 12 12 6 0 8 -11 4 -25 -5 -20 -1
-26 20 -35 14 -5 33 -7 41 -4 8 4 15 1 15 -5 0 -6 -7 -11 -15 -11 -8 0 -15 -4
-15 -9 0 -11 19 -9 43 5 16 9 15 13 -11 42 -16 18 -32 32 -36 32 -16 0 -33 27
-32 51 1 13 -3 27 -8 31 -6 4 3 6 20 6 22 -1 30 -6 31 -19 2 -22 -8 -24 -25
-7 -14 14 -16 0 -4 -20 5 -8 16 -10 27 -6 14 6 16 4 10 -6 -5 -8 -4 -11 3 -6
6 3 9 22 8 41 -2 20 1 38 5 41 5 3 9 10 9 16 0 6 -11 3 -25 -6 -28 -18 -45
-21 -45 -6 0 6 8 10 17 10 13 0 14 3 5 12 -15 15 -16 48 -2 48 6 0 10 -11 10
-25 0 -22 3 -25 25 -19 20 5 25 2 25 -12 0 -15 2 -16 9 -5 7 11 13 12 23 4 9
-7 20 -6 36 2 15 8 20 15 13 19 -12 8 -15 26 -3 26 4 0 16 -7 27 -16 16 -12
17 -16 6 -23 -11 -7 -9 -11 7 -20 15 -8 23 -8 28 1 4 6 3 8 -4 4 -6 -3 -13 -2
-16 3 -4 5 -2 13 4 16 13 8 -25 39 -56 47 -12 3 -28 2 -35 -3 -11 -7 -11 -9
-1 -9 7 0 10 -4 7 -10 -3 -5 -13 -10 -20 -10 -11 0 -12 6 -6 23 6 14 16 22 32
21 13 -1 28 4 34 9 15 14 7 54 -12 61 -11 4 -13 2 -9 -9 3 -9 0 -15 -8 -15
-21 0 -8 37 15 43 11 3 19 14 19 27 0 13 8 24 20 27 11 3 20 13 19 22 0 10 -2
11 -6 3 -2 -6 -9 -10 -14 -6 -16 9 -10 21 14 29 12 3 17 9 10 11 -7 3 -21 0
-32 -6 -16 -8 -21 -21 -21 -50 0 -22 -4 -40 -9 -40 -5 0 -8 19 -6 43 2 23 4
45 4 50 1 4 8 7 17 7 8 0 12 5 9 10 -4 6 -13 7 -24 1 -13 -7 -18 -6 -18 5 0
13 17 19 40 15 5 -1 7 4 5 11 -3 7 4 19 14 28 11 9 19 31 20 60 3 52 17 73 36
58 8 -7 12 -7 12 0 0 6 -4 13 -10 17 -6 3 -6 15 0 29 5 13 6 27 2 32 -4 4 -2
4 5 1 6 -4 16 -20 21 -37 8 -23 8 -33 -3 -44 -8 -7 -11 -17 -7 -21 4 -4 -3 -2
-15 4 -20 10 -23 9 -23 -9 0 -11 3 -20 8 -21 4 0 20 -2 35 -4 18 -2 30 1 34
11 3 7 9 12 13 9 5 -3 6 5 3 16 -6 21 -7 21 -20 -6 -8 -15 -17 -24 -20 -21 -9
9 26 56 43 56 8 0 12 -4 9 -10 -3 -5 0 -7 8 -4 9 3 19 -6 27 -26 14 -33 33
-35 37 -4 3 18 2 18 -6 -1 -7 -18 -9 -17 -24 12 -10 18 -17 39 -17 47 0 12 -5
14 -26 6 -37 -14 -46 -12 -39 9 4 13 -2 27 -16 40 -13 11 -19 24 -14 28 4 5
10 2 12 -5 3 -6 10 -9 15 -6 7 4 8 2 4 -4 -4 -7 -2 -12 4 -12 6 0 13 7 16 15
5 12 10 13 20 4 8 -6 14 -7 14 -2 0 5 12 10 26 11 30 2 44 9 44 22 0 5 -7 7
-16 3 -12 -4 -14 0 -9 20 4 14 2 28 -4 31 -21 14 -11 26 22 26 18 0 39 6 46
13 11 10 12 8 7 -8 -3 -11 -1 -27 4 -35 7 -11 10 -5 10 23 0 24 4 36 10 32 6
-4 8 -15 5 -24 -3 -11 3 -25 16 -37 22 -19 22 -19 10 3 -14 27 -14 36 -1 28 6
-3 10 -2 10 4 0 6 -9 15 -21 22 -17 8 -18 13 -9 22 10 9 14 9 17 0 6 -18 20
-16 20 2 0 8 -4 12 -8 9 -4 -2 -10 2 -12 8 -4 10 -8 9 -16 -2 -8 -12 -13 -11
-28 7 -14 15 -23 19 -34 12 -18 -11 -29 -11 -29 0 0 5 10 13 23 17 12 3 29 12
37 19 8 7 26 12 40 11 26 -2 60 19 60 37 0 6 -10 2 -21 -9 -22 -19 -22 -19
-15 6 4 14 10 33 12 42 4 14 1 16 -13 12 -14 -5 -15 -4 -4 4 8 6 21 8 29 5 11
-5 11 0 -3 21 -16 23 -16 26 -1 20 9 -3 13 -10 10 -15 -3 -5 0 -9 5 -9 14 0
14 13 -1 28 -9 9 -8 12 4 12 24 0 29 -45 6 -59 -19 -12 -25 -41 -7 -41 5 0 8
4 4 9 -3 6 3 8 15 6 11 -2 22 0 25 6 4 5 -2 9 -11 9 -16 0 -16 1 -1 18 11 12
13 22 6 35 -7 11 -7 17 1 17 5 0 10 12 10 26 0 27 21 29 28 3 3 -11 1 -11 -8
1 -10 12 -11 11 -7 -7 3 -13 1 -23 -5 -23 -5 0 -6 -5 -2 -11 3 -6 17 -8 29 -5
14 4 25 1 28 -7 2 -6 7 -9 11 -6 4 4 0 14 -9 23 -11 11 -14 23 -9 34 4 9 6 23
5 31 -1 7 2 10 9 6 7 -4 9 -18 6 -31 -5 -18 -2 -24 9 -24 9 0 13 5 10 10 -3 6
0 10 7 10 9 0 9 3 -2 10 -10 6 -11 10 -2 10 6 0 12 7 12 16 0 9 6 14 12 11 7
-2 12 -13 10 -23 -2 -15 -1 -16 6 -5 6 8 15 10 22 6 9 -6 6 -12 -11 -21 -13
-7 -18 -13 -11 -14 7 0 22 5 33 11 17 9 18 13 8 26 -20 24 -59 35 -75 22 -18
-15 -44 5 -44 32 0 26 19 24 31 -3 7 -19 8 -15 5 17 l-5 40 13 -29 13 -29 0
42 c0 37 -2 41 -21 36 -21 -6 -21 -6 -1 12 11 10 20 30 20 45 -1 25 14 39 45
43 3 0 11 4 19 9 14 9 31 -8 31 -31 0 -15 -26 -17 -35 -4 -3 6 -15 9 -26 8
-19 -1 -21 -6 -17 -54 3 -29 1 -54 -4 -55 -5 -2 -1 -12 7 -23 9 -11 14 -14 10
-7 -3 6 -1 12 4 12 6 0 11 -7 11 -15 0 -8 5 -15 10 -15 6 0 10 5 10 11 0 6 10
8 23 5 12 -3 6 2 -13 11 -29 14 -32 17 -15 21 11 2 25 9 30 14 7 7 4 9 -10 6
-20 -5 -32 3 -48 29 -6 9 -3 11 7 7 9 -3 16 -10 16 -15 0 -5 7 -9 16 -9 14 0
14 3 4 15 -7 9 -10 18 -7 21 10 10 27 -7 27 -27 0 -12 10 -23 26 -29 36 -14
42 -12 17 5 -25 18 -38 62 -23 80 8 9 8 14 -1 17 -8 3 -10 11 -4 24 4 10 8 28
8 39 0 12 10 26 23 32 13 6 24 7 24 2 0 -5 6 -9 13 -9 6 0 -5 16 -25 35 -34
32 -36 54 -3 41 7 -2 16 0 19 7 2 7 5 4 5 -6 1 -14 -4 -17 -20 -12 -15 5 -19
4 -15 -4 4 -6 16 -11 27 -11 10 0 19 -7 19 -15 0 -8 5 -15 10 -15 6 0 8 16 5
40 -3 23 -1 40 5 40 17 0 16 -92 -1 -98 -17 -7 -9 -21 11 -19 16 1 20 8 20 35
0 35 9 47 49 70 21 12 23 12 18 -2 -4 -9 -1 -16 4 -16 7 0 9 11 6 26 -3 18 -1
22 6 15 16 -16 47 -13 47 5 0 11 -6 13 -19 9 -11 -3 -22 -1 -26 5 -9 15 -25
12 -25 -4 0 -8 -4 -17 -9 -20 -5 -3 -8 5 -8 19 0 14 3 23 7 20 4 -2 13 14 20
36 14 42 30 61 30 36 0 -8 9 -17 20 -20 21 -5 24 1 14 27 -3 9 -11 13 -17 9
-6 -3 -7 -1 -3 6 4 6 4 21 1 32 -5 16 -10 18 -18 10 -9 -9 -8 -14 2 -20 8 -5
9 -11 3 -15 -9 -6 -27 21 -24 37 3 14 -17 7 -26 -9 -6 -11 -11 -13 -16 -5 -4
6 -2 11 4 11 7 0 10 6 7 13 -2 6 0 20 5 30 6 11 5 17 -3 17 -7 0 -10 3 -6 6 3
3 13 2 22 -3 15 -9 15 -11 1 -25 -13 -14 -11 -16 25 -21 65 -9 77 -1 74 46 -2
23 -8 43 -14 45 -7 2 -7 8 2 17 7 7 16 11 21 8 4 -3 2 -9 -5 -14 -11 -7 -11
-9 -1 -9 7 0 10 -4 7 -10 -3 -5 0 -10 7 -10 10 0 10 -2 1 -8 -15 -9 -6 -52 11
-52 6 0 4 -5 -4 -10 -11 -7 -7 -10 18 -10 34 0 38 6 21 30 -9 13 -10 12 -5 -2
3 -10 1 -18 -4 -18 -6 0 -11 5 -11 10 -5 29 -3 35 11 35 8 0 16 9 17 20 2 11
0 14 -3 8 -6 -15 -34 -18 -34 -4 0 5 7 12 16 15 21 8 65 -4 58 -15 -3 -5 -10
-7 -15 -4 -5 3 -6 -1 -3 -9 9 -23 34 -20 34 4 0 11 5 20 11 20 7 0 9 10 5 25
-6 23 -5 24 19 13 18 -8 29 -8 36 -1 7 7 3 11 -15 12 -50 3 -56 4 -56 15 0 6
-5 4 -10 -4 -7 -12 -9 -10 -7 8 1 16 6 21 19 16 22 -7 23 2 3 22 -24 24 -17
37 7 14 28 -26 38 -25 38 1 0 15 -5 19 -15 15 -10 -3 -17 3 -21 19 -3 14 -11
22 -16 19 -6 -4 -5 2 1 14 13 25 31 38 31 23 0 -6 -4 -11 -9 -11 -5 0 -7 -9
-4 -20 3 -11 9 -17 14 -15 4 3 12 -1 16 -10 7 -11 15 -12 38 -6 29 9 29 9 5
11 l-25 1 23 11 c14 7 21 17 17 26 -8 21 5 35 21 21 11 -9 14 -8 14 5 0 10 4
15 8 12 12 -7 10 38 -2 47 -7 5 -3 7 9 5 12 -2 19 -11 19 -21 -1 -9 2 -17 7
-17 13 0 11 37 -2 45 -6 4 -8 13 -5 21 7 17 -6 18 -23 2 -11 -11 -13 -10 -8 5
4 9 2 17 -3 17 -6 0 -10 5 -10 12 0 9 3 9 12 0 7 -7 19 -12 27 -12 11 0 12 3
3 12 -9 9 -7 14 6 24 25 19 34 17 22 -5 -5 -11 -10 -28 -10 -38 1 -17 1 -17
14 0 17 22 25 22 19 -2 -3 -10 0 -22 6 -25 6 -4 11 -2 11 3 0 6 5 11 11 11 6
0 8 -9 4 -22 -5 -21 -5 -21 8 -6 9 11 18 14 28 7 26 -17 34 -9 8 9 -14 9 -24
23 -22 30 3 6 0 12 -6 12 -7 0 -9 10 -5 24 3 13 1 27 -5 30 -7 5 -11 -2 -11
-18 0 -14 -5 -28 -11 -32 -19 -11 -1 49 18 64 21 15 33 15 33 1 0 -6 6 -9 14
-6 8 3 16 2 18 -3 2 -5 13 -7 25 -4 13 4 20 10 17 15 -3 5 -10 7 -15 4 -16
-11 -31 5 -19 20 7 8 9 19 6 24 -4 5 -2 12 4 16 5 3 11 1 11 -4 1 -6 2 -16 3
-23 0 -6 6 -13 12 -15 14 -5 13 29 -1 39 -6 4 -2 8 8 8 10 0 20 7 23 15 4 10
13 13 25 10 10 -4 24 -3 31 2 14 8 14 10 17 73 1 31 5 40 19 39 10 0 12 -3 5
-6 -7 -2 -13 -9 -13 -14 0 -6 5 -7 10 -4 6 3 10 2 10 -4 0 -5 -5 -13 -10 -16
-17 -10 -11 -23 8 -18 14 3 18 13 16 39 -2 19 1 34 6 34 13 0 22 -18 11 -24
-13 -9 2 -59 20 -64 8 -2 10 0 4 5 -12 10 -16 43 -5 43 10 0 7 40 -4 58 -4 7
-1 12 8 12 22 0 26 -12 17 -53 l-9 -36 24 16 c24 15 30 24 16 22 -21 -4 -24 3
-6 16 29 22 34 18 23 -17 -12 -42 -11 -48 2 -48 6 0 8 7 5 16 -5 12 -1 14 17
9 18 -5 19 -4 6 4 -11 7 -17 24 -17 46 0 22 4 33 11 28 6 -4 8 -1 5 8 -3 8 -9
22 -13 32 -4 9 -3 17 2 17 6 0 15 -15 21 -32 5 -19 10 -25 11 -15 1 10 5 16
11 12 5 -3 7 -12 3 -20 -3 -9 1 -15 9 -15 16 0 58 29 43 30 -6 0 -17 -6 -24
-12 -11 -11 -13 -10 -8 3 4 11 -3 20 -19 28 -13 6 -24 15 -24 21 0 6 5 8 12 4
6 -4 8 -3 4 4 -3 6 -1 14 5 18 6 3 15 1 19 -6 4 -7 13 -9 19 -6 6 4 11 0 11
-11 0 -16 1 -16 18 0 15 16 15 19 2 27 -8 5 -20 8 -27 5 -7 -2 -15 0 -18 4 -3
5 3 12 12 15 9 4 20 1 24 -5 4 -8 10 -6 16 6 7 12 13 14 17 6 4 -6 17 -11 29
-10 20 0 20 1 4 8 -20 7 -15 15 22 36 11 6 13 4 8 -8 -4 -10 -2 -17 4 -17 7 0
5 -10 -5 -24 -15 -23 -14 -25 5 -31 12 -4 26 -2 31 3 8 8 4 9 -11 5 -27 -7
-28 13 -1 22 23 7 27 35 6 35 -16 0 -29 27 -16 35 4 3 10 -1 13 -7 2 -7 8 -10
12 -6 4 4 2 14 -5 23 -17 20 -5 19 20 -2 12 -11 16 -21 10 -28 -12 -14 0 -31
27 -39 26 -8 38 8 23 31 -10 16 -10 15 -5 -4 5 -18 2 -20 -15 -16 -23 6 -25
14 -8 31 9 9 8 15 -8 27 -10 8 -14 15 -6 15 6 0 12 4 12 9 0 5 -18 9 -40 9
-23 1 -38 -3 -35 -9 4 -5 1 -9 -5 -9 -6 0 -9 -4 -5 -9 3 -5 1 -12 -4 -15 -12
-8 -25 26 -13 33 5 3 14 16 21 29 9 16 9 22 0 22 -8 0 -7 5 2 16 8 9 15 12 17
6 2 -6 10 -8 18 -5 8 3 14 0 14 -7 0 -6 -4 -9 -9 -6 -10 7 -37 -22 -28 -30 3
-4 13 1 22 10 19 18 65 22 65 5 0 -6 -7 -9 -15 -6 -8 4 -17 2 -20 -3 -6 -9 9
-14 29 -11 5 1 6 -7 3 -18 -3 -12 2 -26 11 -33 13 -11 14 -11 8 0 -10 16 11
42 34 42 20 0 28 -14 26 -51 -1 -14 4 -26 10 -26 8 0 9 11 3 35 -5 26 -3 44 8
66 9 17 18 26 20 19 3 -9 12 -9 29 -2 36 13 43 11 37 -9 -3 -12 1 -19 10 -19
8 0 13 6 10 12 -2 7 3 15 11 18 10 4 16 1 16 -8 0 -8 6 -15 14 -15 8 0 23 -3
33 -6 16 -5 16 -4 -2 10 -11 8 -27 22 -36 31 -11 11 -19 13 -24 6 -9 -16 -25
-13 -25 4 0 8 5 15 10 15 6 0 10 7 10 15 0 8 5 15 11 15 6 0 9 -7 5 -15 -8
-22 5 -18 29 8 11 12 26 22 34 22 8 0 16 6 19 14 3 8 0 11 -6 8 -5 -4 -12 2
-15 13 -3 11 -1 20 4 20 5 0 9 7 9 16 0 8 4 13 9 10 5 -3 7 -15 4 -26 -4 -14
1 -21 20 -25 14 -4 28 -13 31 -21 7 -19 -8 -18 -24 1 -11 14 -14 13 -25 -2
-11 -15 -12 -37 -6 -76 0 -5 5 -6 11 -2 5 3 7 12 3 20 -3 8 -1 15 5 15 6 0 12
-6 15 -12 2 -8 8 -9 13 -4 5 5 5 10 -1 13 -24 9 -39 23 -32 30 4 4 17 1 29 -6
15 -9 23 -10 32 -1 8 8 7 13 -3 19 -8 5 -11 17 -7 28 6 20 -18 52 -31 40 -3
-4 2 -9 11 -13 23 -9 20 -23 -3 -17 -30 8 -25 60 6 67 14 4 23 14 23 26 0 22
-10 26 -27 9 -7 -7 -12 -6 -17 6 -3 9 -2 14 3 10 12 -7 41 5 41 17 0 6 -7 8
-14 5 -10 -4 -13 -1 -9 9 3 7 12 14 21 14 8 0 12 3 9 7 -4 3 -2 12 4 20 9 9 8
13 0 13 -6 0 -11 7 -11 15 0 8 5 15 10 15 6 0 10 -7 10 -15 0 -8 6 -15 13 -15
8 0 9 -3 1 -8 -6 -4 -14 -19 -18 -34 -5 -24 -3 -28 21 -34 16 -3 37 -12 49
-19 17 -11 22 -10 32 6 10 16 7 22 -24 45 -19 15 -42 40 -50 56 -16 30 -5 37
20 13 14 -14 15 -12 12 18 -2 19 -6 40 -11 46 -4 8 8 28 34 53 22 23 41 36 41
31 0 -6 -7 -16 -15 -23 -8 -7 -12 -16 -9 -21 3 -5 -2 -6 -10 -3 -8 3 -19 -3
-26 -15 -7 -14 -7 -21 0 -21 5 0 9 -10 7 -21 -1 -12 4 -24 11 -26 7 -3 12 4
12 19 1 20 2 21 10 6 11 -17 3 -51 -9 -43 -4 2 -8 -3 -8 -11 0 -8 12 -17 26
-20 14 -3 31 -7 38 -9 7 -2 15 1 19 7 4 7 3 8 -4 4 -7 -4 -12 -2 -12 4 0 7 -6
10 -13 7 -16 -6 -18 35 -3 45 18 12 31 9 18 -4 -16 -16 4 -39 26 -31 21 8 35
31 37 60 1 28 -11 30 -25 3 -10 -19 -12 -19 -35 -4 -22 14 -23 18 -10 31 8 8
15 21 15 29 0 8 4 14 9 14 13 0 5 -42 -10 -51 -8 -5 -8 -8 0 -13 6 -4 11 -3
11 2 0 5 11 15 25 22 29 16 33 30 8 31 -11 0 -13 3 -5 6 6 2 12 20 12 39 0 21
4 33 10 29 5 -3 9 -18 8 -33 -3 -53 2 -82 16 -82 7 0 19 -7 26 -15 15 -18 31
-10 23 10 -3 9 1 15 10 15 8 0 20 7 27 15 9 11 9 15 1 15 -7 0 -9 5 -6 10 5 8
11 8 19 1 15 -13 26 -4 26 20 0 20 -17 35 -28 24 -3 -3 0 -10 8 -15 12 -8 11
-10 -5 -11 -11 -1 -23 -1 -27 0 -5 0 -8 -11 -8 -25 0 -14 -4 -23 -9 -20 -4 3
-6 17 -3 31 2 14 0 25 -5 25 -14 0 -33 -22 -33 -39 0 -14 1 -14 10 -1 8 12 10
11 10 -7 0 -13 -4 -23 -8 -23 -15 0 -31 46 -22 60 5 8 7 17 5 20 -2 3 12 7 31
7 19 1 34 -3 34 -7 0 -5 17 9 38 29 20 21 43 36 50 34 9 -4 11 2 8 19 -3 12
-7 35 -10 49 -4 17 0 31 8 38 14 12 16 5 18 -96 0 -38 18 -45 18 -8 0 14 5 25
10 25 6 0 10 -7 10 -17 0 -16 14 -10 16 8 3 22 5 23 12 11 11 -16 42 -5 42 15
0 11 -4 13 -12 6 -17 -12 -77 -11 -80 2 -2 5 15 10 37 10 34 0 40 3 43 23 2
13 -3 25 -12 28 -9 3 -16 12 -16 20 0 21 20 17 20 -3 1 -16 2 -16 13 -3 14 18
25 19 51 4 12 -8 15 -14 7 -18 -6 -4 -11 -2 -11 5 0 8 -3 9 -13 0 -8 -6 -18
-7 -23 -3 -4 4 -3 0 4 -10 9 -11 10 -18 2 -23 -15 -9 -12 -28 3 -22 10 4 11
-4 3 -38 -6 -24 -14 -41 -20 -38 -5 3 -6 1 -2 -6 11 -17 37 6 29 26 -4 11 -2
14 5 9 8 -5 12 2 12 21 0 18 3 24 9 15 6 -10 10 -10 20 2 14 16 6 40 -10 31
-5 -4 -4 6 2 22 5 15 7 38 4 51 -4 18 -1 25 15 29 11 3 20 9 20 13 0 21 44 17
66 -5 17 -17 24 -20 24 -10 0 8 5 15 10 15 6 0 10 -9 10 -20 0 -11 4 -20 8
-20 16 0 7 40 -10 46 -20 6 -22 13 -8 34 8 12 10 12 10 -5 1 -18 2 -18 14 4 8
14 16 19 20 13 3 -6 0 -13 -6 -16 -9 -4 -9 -8 -2 -11 6 -3 8 -20 6 -37 -3 -21
-1 -29 6 -24 6 4 9 13 6 20 -3 9 3 17 16 21 20 6 21 7 3 20 -17 13 -17 14 2 9
15 -4 27 4 44 26 12 17 20 34 17 37 -3 3 -8 -2 -12 -11 -11 -28 -21 -17 -17
18 2 19 -1 37 -6 40 -13 8 -23 -23 -15 -47 5 -17 4 -18 -9 -6 -8 8 -13 17 -11
20 2 3 8 19 14 34 8 22 13 25 24 16 11 -9 15 -9 20 1 3 7 3 0 -1 -15 -4 -20 0
-32 11 -40 14 -10 15 -17 5 -47 -6 -19 -19 -41 -27 -47 -9 -7 -12 -16 -7 -20
4 -5 10 -3 12 4 3 8 13 8 40 -3 19 -8 38 -13 41 -10 9 9 -6 19 -31 21 -15 1
-23 9 -25 26 -2 23 -2 23 13 5 17 -23 20 -14 4 16 -9 18 -8 19 10 13 25 -8 27
1 6 21 -8 9 -15 26 -15 40 0 13 -5 24 -11 24 -5 0 -7 5 -3 11 4 8 9 7 14 -2
14 -21 41 8 34 36 -6 25 10 43 22 24 4 -8 3 -9 -4 -5 -7 4 -12 1 -12 -8 0 -9
9 -21 20 -28 11 -7 20 -16 20 -21 0 -4 -5 -5 -10 -2 -15 9 -60 -22 -60 -40 0
-24 43 -23 67 1 19 19 3 18 -25 -2 -20 -14 -22 -14 -22 0 0 20 48 32 63 17 9
-10 7 -17 -10 -31 -13 -10 -23 -23 -23 -28 0 -6 -6 -13 -12 -15 -10 -4 -10 -6
-1 -6 7 -1 18 8 25 19 17 27 26 25 26 -5 0 -14 -4 -25 -9 -25 -8 0 -4 -38 6
-48 2 -3 -5 -13 -16 -23 -13 -11 -16 -20 -9 -24 6 -3 7 -12 4 -18 -5 -8 -3 -8
6 0 14 13 20 32 23 66 1 9 7 17 15 17 7 0 10 5 7 10 -4 6 -11 8 -16 5 -5 -4
-9 -1 -9 4 0 6 10 11 23 12 21 0 21 1 -3 10 -14 6 -20 13 -14 17 6 4 10 26 8
50 -1 33 2 45 17 53 25 13 26 -6 2 -20 -16 -9 -16 -10 5 -11 13 0 22 6 22 15
0 24 38 -4 46 -35 3 -14 8 -20 11 -13 2 6 -3 25 -11 42 -18 34 -19 41 -8 41 4
0 13 -13 19 -30 8 -22 17 -30 35 -29 23 1 23 1 -2 9 l-25 7 24 10 c19 7 21 12
11 18 -9 5 -15 4 -18 -3 -6 -19 -22 -14 -22 6 0 15 8 18 42 18 26 -1 43 -6 46
-15 3 -10 0 -12 -11 -8 -12 4 -15 1 -12 -15 5 -23 15 -37 15 -20 0 6 7 18 16
27 15 15 15 17 -2 30 -11 7 -15 17 -11 22 5 4 14 1 21 -9 13 -18 68 -14 64 6
-6 23 29 22 35 -1 4 -14 5 -12 6 5 0 12 -4 22 -10 22 -7 0 -5 10 5 25 18 28
20 35 7 35 -5 0 -12 -11 -15 -25 -4 -14 -10 -25 -15 -25 -5 0 -4 16 1 35 6 19
15 32 20 29 5 -3 16 0 25 8 14 11 15 10 8 -11 -6 -21 -5 -22 17 -16 33 11 38
23 33 88 -3 34 -1 57 5 57 6 0 10 -8 10 -17 1 -17 1 -17 11 0 5 9 18 17 27 17
11 0 6 -7 -15 -22 -31 -22 -42 -38 -25 -38 4 0 6 -18 4 -40 -4 -42 -32 -73
-58 -63 -8 3 -14 0 -14 -6 0 -6 4 -10 9 -9 12 4 61 -50 61 -68 0 -7 2 -14 4
-14 2 0 11 -3 20 -6 9 -3 16 -1 16 5 0 6 -5 10 -12 9 -18 -4 -22 34 -5 44 16
8 12 48 -5 48 -5 0 -6 -9 -3 -20 8 -24 -10 -27 -31 -5 -14 13 -14 15 1 15 9 0
13 5 10 10 -4 6 5 10 24 8 22 -2 31 -7 31 -20 0 -11 7 -16 20 -15 13 1 16 5
10 11 -6 6 -10 18 -10 28 0 14 -6 16 -29 12 -29 -6 -31 -2 -22 49 0 4 9 7 19
7 16 -1 16 -1 0 -11 -10 -6 -15 -16 -11 -26 6 -14 8 -14 20 3 18 25 17 58 -2
50 -8 -3 -15 -1 -15 4 0 13 31 13 50 0 13 -8 13 -10 0 -10 -9 0 -7 -6 8 -16
13 -9 26 -13 29 -10 4 3 1 6 -5 6 -6 0 -10 9 -9 19 1 12 6 17 15 13 8 -3 21 3
28 13 8 10 17 15 21 11 4 -4 1 -11 -6 -15 -11 -7 -9 -11 7 -20 26 -14 32 -14
32 0 0 5 -4 7 -10 4 -5 -3 -10 -2 -10 2 0 5 14 17 31 27 22 13 28 21 20 29 -6
6 -11 17 -11 25 0 11 3 12 14 3 18 -15 27 -49 15 -57 -6 -3 -5 -11 2 -20 9
-11 8 -14 -6 -14 -30 0 -54 -37 -48 -74 3 -21 1 -36 -7 -41 -10 -6 -12 -2 -8
13 4 12 3 24 -2 27 -4 3 -10 -5 -14 -18 -3 -12 -1 -23 4 -25 6 -2 10 -11 11
-20 0 -12 3 -10 10 6 9 24 29 22 29 -4 0 -8 7 -14 16 -14 14 0 15 2 3 18 -8 9
-17 19 -20 22 -10 9 -19 70 -9 70 4 0 11 -8 13 -17 3 -11 5 -6 6 11 1 20 5 27
16 22 18 -7 37 52 22 72 -6 8 -5 17 3 27 10 12 10 18 1 29 -8 10 -9 16 -1 21
5 3 10 1 10 -4 0 -6 5 -10 11 -9 6 2 14 -3 17 -11 2 -8 0 -11 -5 -8 -6 4 -10
-7 -10 -26 1 -18 -2 -38 -7 -45 -4 -7 -3 -12 3 -12 15 0 29 30 24 51 -6 21 8
24 37 9 16 -8 18 -8 14 5 -4 8 -12 15 -20 15 -7 0 -19 10 -25 23 -9 18 -9 20
2 10 20 -19 27 -16 25 12 -1 26 -21 34 -29 13 -4 -10 -8 -9 -16 2 -8 11 -11
12 -11 2 0 -7 -5 -10 -11 -6 -8 4 -7 9 2 15 21 13 3 22 -19 10 -27 -14 -52
-14 -52 0 0 6 7 9 15 5 24 -9 46 4 40 24 -3 9 1 23 10 30 9 7 15 8 15 2 0 -6
-5 -12 -12 -14 -19 -7 24 -48 50 -48 19 0 23 4 19 20 -8 29 2 25 14 -7 7 -18
6 -28 -1 -33 -8 -5 -6 -17 8 -38 14 -24 21 -29 30 -20 9 9 17 7 32 -7 17 -15
23 -16 29 -6 6 9 11 10 15 2 4 -6 4 -15 1 -21 -3 -6 1 -7 9 -4 9 3 16 13 16
21 0 8 -4 11 -10 8 -5 -3 -10 3 -10 14 0 10 6 22 13 24 6 3 2 6 -11 6 -15 1
-21 5 -16 13 5 7 2 9 -7 6 -8 -3 -19 0 -25 6 -12 13 -7 36 8 36 6 0 7 -8 4
-17 -4 -10 -4 -14 0 -11 4 4 16 2 28 -4 18 -10 19 -9 9 4 -10 12 -9 19 8 36
12 13 15 22 7 22 -6 0 -3 6 7 14 11 8 24 12 29 8 5 -3 1 -9 -10 -13 -10 -4
-13 -8 -6 -8 7 -1 3 -10 -10 -23 -16 -16 -18 -23 -8 -26 16 -6 63 45 55 59 -4
5 3 9 14 9 12 0 21 -5 21 -11 0 -5 -4 -7 -10 -4 -5 3 -10 0 -10 -9 0 -8 -14
-26 -31 -40 -19 -16 -29 -32 -26 -43 4 -15 6 -15 12 5 7 22 20 29 28 15 2 -5
2 -2 0 6 -4 15 14 41 29 41 5 0 4 -8 -1 -19 -6 -10 -8 -21 -4 -24 3 -4 0 -13
-7 -22 -11 -13 -9 -15 11 -11 13 3 25 5 27 5 1 1 -2 10 -8 22 -17 30 -4 36 20
8 11 -13 18 -32 16 -41 -2 -11 2 -18 10 -18 8 0 14 -4 14 -10 0 -5 -15 -10
-32 -10 -23 0 -29 -3 -19 -9 7 -5 11 -13 8 -18 -4 -5 -2 -23 3 -39 l10 -29 -5
33 c-2 18 0 32 6 32 6 0 7 5 4 10 -3 6 1 10 11 10 11 0 15 -6 11 -20 -3 -12
-1 -18 5 -14 5 3 8 15 5 25 -3 10 -1 22 5 25 5 3 2 11 -8 18 -16 12 -16 13 0
19 10 4 15 11 11 16 -3 6 -12 8 -20 4 -21 -7 -19 7 2 23 10 7 14 16 9 21 -5 4
-11 2 -13 -4 -3 -7 -11 -13 -19 -13 -10 0 -12 8 -7 30 4 21 2 30 -7 30 -8 0
-11 2 -8 5 9 10 38 -7 38 -22 0 -8 6 -13 13 -10 6 2 11 13 9 23 -3 16 -1 16
13 -3 21 -30 37 -29 29 2 -4 15 -2 25 5 25 10 0 15 -17 12 -50 -1 -21 16 -46
26 -37 4 5 1 12 -7 18 -13 8 -13 10 0 19 12 8 12 12 2 18 -8 5 -10 16 -6 27 5
13 4 16 -4 11 -7 -4 -12 -2 -12 4 0 7 -7 10 -15 6 -17 -6 -21 9 -4 19 5 4 20
-1 31 -12 21 -18 21 -18 15 17 -4 19 -4 30 1 23 4 -6 20 -16 35 -22 15 -6 27
-15 27 -21 0 -15 -11 -12 -33 8 -19 16 -19 16 -12 -7 5 -16 4 -21 -4 -17 -6 4
-11 0 -11 -8 0 -21 16 -20 24 0 4 11 10 13 19 7 20 -16 57 -22 57 -10 0 7 5 5
10 -3 9 -13 11 -13 20 0 14 21 12 30 -4 30 -18 0 -27 37 -11 44 8 3 16 -6 20
-21 6 -24 7 -25 20 -7 11 16 16 17 27 6 11 -11 10 -12 -3 -7 -12 5 -20 -2 -28
-26 -11 -32 -7 -56 5 -26 3 9 12 13 20 10 8 -3 14 1 14 10 0 8 7 17 15 21 8 3
15 0 15 -6 0 -16 29 24 30 41 0 8 -6 11 -15 7 -8 -3 -22 -9 -30 -12 -10 -4
-15 0 -15 11 0 11 5 15 15 12 19 -8 31 13 14 24 -12 7 -11 9 1 9 9 0 24 -14
34 -30 9 -17 22 -28 27 -25 5 4 16 -1 24 -9 14 -13 13 -16 -2 -25 -13 -7 -23
-5 -35 6 -16 15 -18 15 -18 0 0 -10 -16 -24 -40 -34 -31 -14 -39 -22 -35 -38
3 -11 2 -14 -1 -7 -8 17 -21 15 -21 -4 0 -10 7 -14 19 -11 28 8 21 -11 -9 -26
-30 -14 -64 -12 -75 6 -4 6 -11 8 -15 3 -4 -5 -2 -11 5 -13 6 -3 12 -11 12
-19 0 -8 5 -14 10 -14 6 0 10 4 10 8 0 4 19 8 43 7 37 0 42 -2 40 -22 -2 -19
2 -22 22 -21 26 2 34 22 13 34 -7 4 -8 3 -4 -4 4 -7 2 -12 -3 -12 -6 0 -11 6
-11 14 0 8 -5 16 -12 18 -7 3 -9 12 -5 22 6 15 15 17 42 13 l34 -6 -5 47 c-3
34 -2 43 6 32 5 -8 10 -26 11 -40 1 -23 2 -23 9 5 7 28 10 26 14 -7 1 -7 7
-12 14 -10 7 1 12 -7 12 -18 0 -11 4 -20 10 -20 9 0 10 10 10 88 0 17 5 32 11
32 6 0 8 -9 4 -22 -7 -23 -7 -23 18 2 l24 25 -20 28 c-11 17 -25 26 -33 23
-11 -4 -14 1 -11 18 3 30 25 56 44 56 9 0 13 6 9 15 -3 8 -1 15 3 15 5 0 12
-7 15 -16 3 -8 10 -13 15 -9 6 3 7 13 4 22 -4 11 -3 14 5 9 16 -10 15 -22 -4
-40 -14 -14 -14 -16 0 -16 8 0 21 8 28 19 9 13 19 16 33 10 11 -4 14 -8 8 -10
-25 -3 -28 -4 -41 -12 -7 -5 -10 -13 -6 -18 3 -6 11 -5 21 2 11 10 19 10 33 1
10 -6 20 -9 23 -6 8 9 -22 62 -40 68 -9 4 -13 9 -10 12 9 9 47 -16 47 -31 0
-7 7 -20 15 -29 14 -13 13 -16 -5 -26 -16 -9 -25 -8 -36 1 -11 9 -18 9 -25 2
-13 -13 25 -38 41 -28 6 3 10 -1 10 -10 0 -10 -6 -15 -13 -12 -20 8 -47 -17
-37 -33 7 -12 10 -12 16 3 3 9 12 17 20 17 7 0 18 9 24 20 12 22 37 17 43 -8
3 -10 5 -4 6 11 1 17 -3 26 -9 22 -5 -3 -10 4 -10 16 0 17 3 19 13 10 8 -6 17
-8 20 -5 4 4 5 -2 3 -12 -6 -33 11 -64 36 -63 15 1 17 3 7 6 -9 2 -16 15 -17
31 0 15 -2 32 -3 37 -3 14 11 45 21 45 4 0 11 -7 14 -16 4 -12 2 -15 -9 -11
-8 4 -17 2 -20 -3 -6 -10 5 -13 40 -11 14 1 12 -2 -9 -12 l-29 -13 24 -27 c19
-23 28 -27 47 -20 20 8 21 10 8 28 -14 18 -15 18 -16 3 0 -20 -8 -22 -30 -8
-13 8 -12 10 3 10 10 0 15 5 12 10 -3 6 3 10 14 10 12 0 20 3 20 8 -5 27 23 9
46 -33 14 -23 75 -31 75 -10 0 10 -9 13 -30 10 -40 -5 -45 8 -15 41 25 27 35
61 13 48 -8 -5 -9 -2 -5 9 3 9 2 19 -3 22 -12 8 -13 25 -1 25 5 0 12 -10 16
-22 6 -20 8 -20 12 -5 2 9 9 15 14 12 5 -4 4 -14 -3 -24 -9 -14 -7 -24 8 -44
10 -15 27 -27 36 -27 9 0 19 -6 21 -12 4 -9 8 -10 14 -3 4 6 20 11 35 10 26 0
26 -1 13 -22 -8 -12 -15 -26 -15 -30 0 -4 5 0 11 9 6 11 16 15 27 11 14 -6 15
-4 4 9 -10 12 -10 17 1 27 11 8 14 5 14 -19 0 -22 -5 -30 -19 -30 -11 0 -18
-7 -18 -17 0 -14 2 -15 9 -4 5 7 14 10 20 7 17 -11 13 -26 -6 -27 -17 -1 -17
-2 0 -6 9 -2 17 -13 17 -24 0 -10 4 -19 9 -19 9 0 5 55 -4 71 -4 5 3 9 14 9
12 0 21 4 21 10 0 5 -5 9 -12 7 -6 -1 -13 7 -15 18 -3 15 -2 16 5 7 8 -11 10
-11 15 1 3 9 0 18 -8 21 -24 9 -9 38 32 62 30 16 44 19 52 11 6 -6 11 -7 11
-1 0 5 4 3 9 -5 7 -11 15 -11 45 -1 19 6 40 9 46 5 5 -3 10 -1 10 5 0 7 6 8
18 2 19 -10 42 -5 42 9 0 6 -8 9 -17 7 -11 -2 -17 2 -15 11 2 9 -3 11 -14 7
-24 -9 -91 14 -73 25 8 5 20 2 31 -8 16 -14 20 -14 42 1 20 12 24 13 20 2 -10
-26 14 -26 31 0 9 14 19 23 22 20 3 -3 -2 -12 -11 -21 -16 -16 -14 -35 4 -35
5 0 7 7 4 15 -4 8 -1 15 5 15 6 0 11 -9 11 -19 0 -11 2 -25 3 -33 2 -7 2 -10
0 -5 -3 4 -12 7 -21 7 -39 -1 23 -30 63 -30 49 0 85 28 85 66 0 14 4 23 9 20
9 -6 9 -74 0 -91 -8 -14 16 -91 24 -78 4 6 3 23 -3 38 -7 20 -7 31 1 41 9 11
8 14 -1 14 -8 0 -11 2 -8 5 12 12 36 -7 31 -25 -7 -26 4 -53 17 -45 8 5 7 12
-1 22 -10 11 -10 16 0 23 10 6 10 9 1 15 -7 4 -9 18 -6 34 6 24 5 25 -8 8 -19
-24 -29 -5 -15 27 13 27 33 37 23 11 -4 -8 -2 -15 2 -16 5 0 21 -2 37 -4 15
-2 27 1 27 6 0 5 -4 9 -10 9 -5 0 -10 5 -10 10 0 7 6 7 20 0 15 -8 18 -18 15
-46 -3 -23 -1 -33 5 -29 6 4 16 2 23 -3 8 -7 18 -6 32 4 19 14 19 14 -3 30
-18 12 -21 19 -11 30 6 7 15 11 20 9 15 -10 41 42 34 67 -7 22 -6 22 10 6 16
-15 16 -18 -1 -50 -11 -18 -22 -34 -26 -36 -11 -5 -10 -22 1 -22 5 0 17 17 27
38 10 21 19 31 22 24 2 -8 -1 -24 -8 -37 -9 -17 -10 -31 -2 -54 7 -19 7 -33 1
-36 -12 -8 -12 -25 1 -25 6 0 10 7 10 16 0 11 6 14 21 9 14 -5 20 -3 18 7 -3
27 1 37 21 43 11 3 20 13 20 21 0 8 7 14 15 14 8 0 15 -5 15 -11 0 -5 5 -7 10
-4 8 5 7 11 -1 21 -9 11 -8 14 4 14 8 0 17 -6 20 -12 3 -10 7 -10 19 0 12 9
17 10 20 1 2 -7 8 -6 17 5 11 14 11 16 -3 16 -22 0 -20 27 3 40 29 15 39 12
17 -5 -17 -13 -18 -15 -3 -15 21 0 21 -2 -3 -45 -11 -19 -16 -35 -10 -35 5 0
12 5 15 10 4 6 11 8 16 5 5 -4 9 -2 9 4 0 6 6 9 13 7 44 -14 68 -16 61 -5 -4
7 -2 10 7 7 8 -3 14 -17 15 -32 1 -14 5 -30 9 -34 5 -4 5 1 2 11 -4 9 -2 17 3
17 16 0 11 19 -10 37 -23 20 -27 38 -6 30 8 -3 17 1 20 9 5 13 0 14 -27 9 -27
-5 -29 -4 -13 6 15 9 16 13 5 20 -21 13 -26 11 -32 -11 -3 -10 1 -24 9 -31 22
-18 16 -31 -13 -27 -19 2 -28 8 -27 20 1 10 -2 15 -7 12 -5 -3 -9 2 -9 10 0 9
5 16 11 16 6 0 19 10 30 23 16 19 20 20 29 7 7 -11 14 -12 26 -4 12 7 27 7 51
0 38 -13 45 -29 8 -20 -19 5 -25 2 -25 -11 0 -13 3 -15 13 -6 11 8 14 5 14
-19 0 -30 -12 -40 -20 -17 -2 6 -7 9 -11 6 -3 -3 -3 -17 2 -29 5 -15 11 -19
16 -12 4 6 13 9 21 5 18 -6 18 -3 5 31 -6 17 -6 27 1 32 6 3 13 -3 16 -15 3
-11 16 -27 29 -36 14 -9 23 -19 20 -23 -2 -4 7 -8 20 -8 21 -2 24 2 19 20 -6
19 -5 19 14 -4 11 -14 21 -34 21 -45 1 -19 1 -19 11 -2 8 13 5 24 -10 44 -12
14 -21 34 -21 44 0 11 -4 19 -8 19 -5 0 -9 14 -9 30 0 17 4 30 9 30 5 0 6 5 2
12 -4 6 -3 8 4 5 5 -4 8 -16 5 -27z m6216 -2529 c16 -10 6 -32 -12 -26 -23 9
-38 -11 -31 -38 3 -15 10 -27 15 -27 12 0 11 7 -1 31 -8 15 -7 19 5 19 8 0 15
-6 15 -14 0 -8 9 -18 20 -21 11 -3 20 -13 20 -21 0 -8 5 -14 10 -14 6 0 10 5
10 11 0 6 13 -2 30 -18 19 -18 28 -34 24 -45 -9 -28 4 -21 21 11 8 17 12 37 9
45 -7 18 4 20 25 7 9 -6 10 -11 2 -15 -6 -4 -10 -17 -10 -29 1 -17 2 -18 6 -4
5 21 29 23 37 2 3 -8 10 -15 16 -15 6 0 8 5 4 12 -4 7 -3 8 4 4 7 -4 12 -10
12 -14 0 -12 -59 -31 -66 -21 -8 13 -16 11 -43 -10 l-23 -18 36 -22 c27 -17
40 -20 50 -12 16 14 27 4 19 -17 -5 -11 -2 -14 10 -9 12 5 17 1 17 -12 0 -11
6 -21 13 -24 10 -4 10 -7 0 -18 -7 -7 -13 -22 -13 -33 1 -21 1 -21 12 -1 7 11
13 26 14 34 2 7 8 19 15 25 9 8 10 6 6 -12 -4 -15 -1 -22 6 -19 7 3 11 10 9
16 -3 16 23 25 43 14 15 -9 15 -11 1 -22 -14 -11 -16 -11 -16 5 0 15 -2 16 -9
5 -13 -20 -2 -41 21 -41 11 0 22 -8 25 -20 3 -11 9 -20 14 -20 14 0 11 9 -12
41 l-20 29 25 0 c28 0 35 14 11 24 -20 7 -19 25 3 33 9 3 25 13 35 21 19 17
24 3 5 -16 -9 -9 -8 -12 5 -12 9 0 17 -5 17 -10 0 -13 -32 -9 -42 5 -5 6 -5
-5 -2 -22 5 -25 3 -34 -10 -39 -20 -8 -21 -24 -1 -24 17 0 34 29 28 48 -3 6 1
12 7 12 7 0 10 -8 7 -20 -3 -12 1 -24 11 -30 11 -6 12 -9 4 -10 -7 0 -10 -4
-7 -10 3 -5 1 -10 -4 -10 -6 0 -11 -6 -11 -14 0 -35 -45 -25 -82 17 -10 11
-18 15 -18 9 0 -15 -27 -15 -36 0 -4 7 -3 8 4 4 7 -4 12 -1 12 8 0 9 -4 16 -8
16 -15 0 -30 -22 -25 -37 3 -7 -3 -23 -12 -33 -24 -27 -7 -25 22 2 13 12 26
19 29 15 4 -4 -4 -15 -16 -25 -18 -14 -23 -28 -22 -57 2 -48 10 -75 24 -75 7
0 7 4 0 13 -10 13 -10 52 1 63 4 4 7 12 7 18 0 6 -5 4 -10 -4 -11 -17 -13 -10
-4 14 8 20 24 21 24 1 0 -17 16 -20 25 -5 3 6 1 10 -4 10 -6 0 -11 7 -11 16 0
14 3 14 15 4 10 -9 15 -9 15 -1 0 26 15 8 16 -19 1 -16 -2 -29 -5 -28 -18 2
-31 -3 -31 -12 0 -5 13 -7 30 -3 20 4 30 2 30 -7 0 -7 -8 -10 -18 -8 -12 3
-24 -2 -31 -13 -6 -11 -16 -19 -22 -19 -8 0 -8 4 1 14 8 11 9 20 1 33 -6 10
-11 16 -11 13 -7 -33 -7 -59 1 -71 7 -11 12 -10 25 10 14 20 22 22 58 17 38
-6 40 -5 22 9 -11 8 -14 15 -7 15 7 0 9 5 6 10 -4 6 -10 8 -15 5 -5 -3 -11 -1
-15 5 -3 5 0 10 8 10 8 0 18 10 22 23 4 14 8 17 12 9 3 -7 -1 -19 -7 -27 -10
-12 -9 -15 5 -15 11 0 15 -5 11 -15 -6 -17 11 -20 34 -5 12 8 12 10 -5 10 -17
1 -16 3 8 16 31 17 36 28 8 19 -10 -3 -23 1 -30 9 -10 12 -8 14 12 12 13 -2
29 -6 36 -10 7 -5 22 3 36 18 13 14 29 26 35 26 5 0 -6 -15 -26 -34 -20 -19
-33 -39 -30 -44 3 -6 2 -13 -4 -17 -5 -3 -10 -1 -10 4 0 6 -5 11 -12 11 -6 0
-8 -3 -5 -7 9 -9 -33 -53 -50 -53 -7 0 -13 -4 -13 -10 0 -10 27 -3 48 13 8 6
17 6 26 -2 10 -8 19 -7 37 8 21 17 27 17 44 5 10 -8 15 -17 11 -21 -4 -5 -13
-1 -19 8 -9 12 -15 13 -23 5 -6 -6 -9 -17 -6 -24 2 -8 -2 -10 -13 -5 -14 5
-16 2 -11 -15 4 -12 2 -30 -4 -39 -10 -16 -11 -16 -7 4 3 13 0 21 -7 20 -6 -1
-10 8 -10 20 1 13 -3 20 -8 17 -10 -7 -9 -15 16 -79 11 -29 15 -34 16 -17 0
12 4 22 9 22 9 0 35 59 32 73 -1 5 3 6 9 2 5 -3 10 -17 10 -31 0 -14 -4 -23
-9 -19 -5 3 -12 1 -16 -5 -3 -5 1 -10 9 -10 9 0 16 -4 16 -10 0 -5 -4 -10 -10
-10 -5 0 -10 -5 -10 -12 0 -9 3 -9 12 0 16 16 25 15 25 -3 0 -8 -8 -15 -18
-15 -10 0 -20 -4 -24 -9 -3 -6 -17 -6 -35 -1 -28 8 -30 7 -30 -16 0 -19 -3
-22 -12 -13 -15 13 -21 92 -7 84 5 -4 9 -1 9 4 0 6 -5 11 -10 11 -6 0 -8 11
-6 24 3 18 1 23 -9 20 -7 -3 -15 -20 -17 -39 -2 -18 -1 -32 3 -29 4 2 7 -8 7
-24 -1 -37 31 -87 46 -72 6 6 11 16 11 22 0 6 12 12 28 12 29 2 35 -12 15 -32
-9 -9 -9 -12 0 -12 14 0 33 40 25 53 -2 4 1 7 8 7 7 0 9 -10 6 -26 -5 -29 12
-41 41 -29 9 5 26 7 37 6 17 -3 18 -1 5 15 -8 10 -26 28 -40 41 -24 22 -25 22
-3 23 16 0 20 5 16 20 -3 11 -10 20 -15 20 -6 0 -8 -7 -4 -15 4 -13 2 -14 -14
-5 -28 15 -25 26 7 25 14 0 29 -7 31 -15 3 -8 10 -19 16 -23 8 -6 7 -10 -1
-14 -18 -7 -16 -26 2 -19 10 3 15 -1 15 -14 0 -10 10 -26 22 -34 12 -9 19 -19
15 -22 -4 -4 -13 -1 -22 6 -17 14 -21 0 -4 -17 7 -7 6 -12 -5 -16 -10 -4 -13
-1 -10 8 3 7 -4 18 -15 25 -25 13 -25 12 -5 -28 18 -38 28 -40 48 -11 17 25
46 19 46 -9 0 -11 7 -25 15 -32 8 -7 15 -18 15 -24 -1 -6 -8 -2 -18 10 -10 11
-23 19 -30 16 -16 -5 -16 15 1 21 9 3 9 7 0 17 -9 10 -15 6 -29 -23 -10 -20
-21 -34 -25 -31 -4 2 -10 0 -14 -6 -3 -5 -1 -10 5 -10 7 0 9 -8 5 -21 -6 -18
-5 -19 13 -8 13 8 19 20 16 36 -5 26 -4 26 30 13 16 -6 26 -17 26 -30 0 -11 7
-20 16 -20 8 0 12 4 9 10 -3 5 0 7 9 4 10 -4 17 2 22 20 5 20 11 25 24 21 20
-6 33 16 23 42 -6 15 -5 15 8 4 9 -9 13 -28 11 -50 -2 -20 -4 -44 -5 -53 -1
-15 -3 -16 -17 -3 -19 17 -50 20 -50 5 0 -5 6 -10 14 -10 7 0 20 -8 27 -17 11
-15 11 -16 -1 -5 -22 19 -35 14 -17 -6 22 -24 21 -29 -4 -43 -16 -8 -20 -8
-14 1 4 7 1 11 -6 9 -28 -3 -37 1 -35 17 1 8 8 19 15 24 10 6 10 9 1 15 -7 4
-16 2 -21 -6 -4 -8 -14 -14 -21 -15 -7 0 -20 -2 -29 -2 -9 -1 -16 -8 -16 -16
0 -11 5 -12 24 -3 29 13 39 2 38 -40 0 -22 -5 -28 -22 -27 -12 0 -19 -4 -16
-9 3 -5 14 -7 24 -4 15 4 17 2 9 -13 -5 -10 -15 -21 -22 -23 -9 -4 -6 -11 9
-24 16 -13 21 -25 17 -40 -8 -31 4 -29 16 2 6 15 15 23 23 19 7 -2 26 0 41 6
21 8 27 7 24 -2 -3 -7 -10 -13 -15 -13 -22 0 -24 -13 -3 -18 11 -3 20 -1 20 5
0 5 5 6 10 3 6 -4 8 -11 5 -16 -4 -5 -1 -17 5 -26 10 -16 11 -16 7 3 -6 28 10
55 28 48 17 -7 38 37 28 62 -3 9 -6 25 -7 37 -1 17 -7 22 -29 20 -20 -1 -27 3
-27 17 0 29 11 50 26 50 17 0 18 -17 2 -23 -10 -3 -10 -7 -1 -17 10 -10 14 -8
24 13 11 24 39 28 39 5 0 -5 -4 -7 -9 -3 -5 3 -12 1 -16 -5 -3 -5 -1 -10 5
-10 6 0 8 -10 4 -26 -4 -16 -3 -25 2 -21 14 8 47 -20 39 -33 -4 -6 5 -20 19
-31 13 -11 28 -28 31 -39 8 -24 25 -26 25 -3 0 9 3 14 6 10 9 -8 -6 -47 -18
-47 -6 0 -17 -8 -24 -17 -7 -10 -16 -14 -20 -10 -5 4 -4 11 2 15 17 12 25 42
10 42 -7 0 -12 10 -12 22 1 14 -6 24 -19 27 -11 3 -20 15 -20 25 0 11 -4 21
-10 23 -6 2 -10 -14 -9 -35 1 -46 -12 -73 -30 -66 -8 3 -17 0 -21 -6 -8 -13
56 -10 66 3 7 10 39 -2 39 -14 0 -5 -5 -9 -11 -9 -6 0 -9 -6 -6 -14 3 -7 0
-19 -6 -25 -8 -8 -2 -14 20 -22 27 -9 54 -39 37 -39 -10 0 -69 35 -76 45 -4 6
-8 2 -8 -8 0 -11 9 -21 20 -24 11 -3 20 -9 20 -14 0 -5 -7 -5 -17 -2 -11 4
-14 3 -9 -5 4 -7 18 -12 32 -12 21 0 24 -5 24 -34 0 -19 3 -43 7 -53 6 -15 4
-16 -8 -6 -21 17 -44 -20 -30 -45 9 -14 10 -12 11 12 0 20 4 27 14 23 7 -3 19
0 25 6 19 19 39 -9 23 -33 -18 -30 -15 -46 6 -25 9 10 18 30 19 44 0 14 8 30
15 35 8 6 13 17 11 24 -6 16 29 16 45 0 9 -9 12 -9 12 1 0 7 5 9 11 5 8 -5 6
-10 -5 -16 -12 -7 -22 -5 -33 4 -14 11 -16 11 -10 -4 4 -12 -1 -23 -16 -33
-24 -17 -16 -20 13 -5 16 8 18 8 14 -5 -4 -8 -15 -15 -25 -15 -10 0 -19 -6
-19 -12 -1 -18 -36 -58 -51 -58 -18 0 -2 -13 21 -17 14 -2 20 3 20 17 0 18 32
60 46 60 3 0 2 -9 -1 -20 -5 -15 -2 -20 12 -20 10 0 24 4 31 9 11 7 11 9 0 13
-21 8 -21 57 0 65 9 4 20 11 23 16 4 5 7 -3 7 -17 0 -27 -13 -35 -21 -13 -3 6
-6 2 -6 -10 -1 -12 8 -28 19 -36 18 -12 18 -15 6 -20 -9 -4 -13 -13 -10 -22 5
-12 2 -14 -12 -8 -16 6 -17 5 -6 -9 7 -9 9 -19 4 -22 -5 -3 -12 -17 -14 -30
-4 -18 -1 -23 10 -19 8 3 18 0 23 -8 8 -12 10 -12 18 0 6 10 10 10 16 1 4 -7
2 -16 -5 -20 -9 -6 -10 -9 0 -15 7 -4 16 -2 20 5 5 8 9 7 14 -6 4 -10 1 -21
-6 -27 -9 -6 -8 -7 5 -3 9 3 17 4 17 2 0 -3 3 -11 6 -19 3 -9 0 -15 -8 -14
-33 1 -49 -4 -43 -14 4 -6 14 -8 23 -4 9 3 13 3 9 -1 -4 -4 -2 -13 5 -21 21
-25 0 -24 -27 1 -16 15 -34 26 -42 26 -7 0 -16 7 -20 16 -3 8 -12 13 -21 9
-32 -12 -50 4 -47 43 4 54 -3 67 -26 46 -11 -9 -19 -12 -19 -6 0 6 4 13 10 17
5 3 7 12 4 20 -4 10 0 12 18 8 13 -3 20 -3 17 1 -3 3 -20 8 -37 10 -28 3 -30
1 -22 -19 5 -14 4 -27 -3 -34 -8 -8 -8 -11 1 -11 6 0 10 -6 8 -12 -1 -7 -1
-10 1 -5 8 13 25 7 20 -8 -4 -8 -2 -17 3 -20 4 -3 11 1 13 7 4 9 6 10 6 1 1
-6 -3 -14 -9 -18 -5 -3 -8 -11 -7 -18 2 -7 -1 -2 -7 11 -12 26 -30 30 -22 4 5
-16 1 -19 -26 -19 -18 0 -36 5 -40 11 -6 8 -8 8 -8 -1 0 -6 -24 -19 -54 -27
-79 -23 -182 -95 -228 -158 -16 -23 -17 -28 -4 -28 8 0 18 9 21 20 3 11 13 20
21 20 8 0 14 7 14 15 0 14 12 20 33 16 5 -1 6 3 3 8 -10 16 105 81 143 81 10
0 21 3 24 7 11 10 58 13 52 2 -4 -5 1 -9 9 -9 9 0 13 6 10 15 -4 10 0 13 15
10 12 -2 26 -7 31 -10 6 -4 18 -1 27 7 14 11 16 11 11 -3 -3 -9 -2 -22 4 -30
8 -11 9 -10 4 4 -6 18 9 24 19 7 4 -6 11 -8 16 -4 5 3 16 0 24 -6 8 -7 15 -9
15 -5 0 4 6 2 14 -5 8 -6 13 -17 10 -25 -3 -7 0 -16 6 -20 12 -8 -20 -45 -39
-45 -5 0 -11 -6 -14 -12 -2 -7 -8 -10 -12 -6 -5 4 3 17 17 28 19 14 24 26 20
45 -3 19 -8 23 -15 16 -17 -17 -30 -13 -23 5 5 14 4 15 -8 5 -12 -10 -13 -16
-3 -26 6 -7 18 -10 24 -8 16 6 17 -13 3 -22 -6 -4 -17 -1 -25 5 -18 15 -20 -1
-3 -18 9 -9 9 -12 -1 -12 -10 0 -11 -3 -2 -13 8 -11 5 -19 -13 -36 -12 -12
-29 -19 -37 -16 -17 6 -46 -11 -36 -22 5 -4 12 -1 17 7 5 8 12 11 16 7 14 -14
-21 -34 -84 -50 -55 -13 -64 -13 -77 0 -8 8 -15 10 -15 4 0 -5 4 -12 10 -16 5
-3 6 -13 3 -21 -5 -13 -2 -14 13 -6 10 6 38 15 62 20 41 10 43 9 28 -7 -9 -10
-16 -23 -16 -29 0 -6 -5 -14 -12 -18 -7 -4 -8 -3 -4 4 4 7 2 12 -3 12 -6 0
-11 -7 -11 -16 0 -8 -15 -36 -32 -62 -40 -58 -53 -78 -71 -118 -8 -17 -36 -53
-61 -80 -38 -39 -46 -44 -46 -27 0 13 -10 25 -30 33 -16 7 -27 16 -24 21 3 5
-2 16 -10 25 -15 14 -16 12 -14 -19 3 -28 6 -33 22 -29 14 4 17 2 11 -8 -5 -8
-4 -11 3 -6 6 3 13 3 16 -2 2 -4 -4 -13 -15 -20 -16 -10 -19 -9 -19 3 0 8 -4
15 -10 15 -12 0 -13 -10 -1 -29 5 -8 14 -10 21 -6 7 4 16 2 20 -6 11 -18 0
-35 -11 -18 -8 11 -12 10 -22 -6 -6 -11 -12 -28 -12 -37 0 -10 -4 -17 -10 -17
-5 0 -9 7 -7 15 2 8 -5 14 -18 14 -11 0 -20 -4 -20 -10 0 -5 5 -10 11 -10 6 0
9 -10 7 -22 -2 -13 -7 -21 -13 -18 -5 3 -9 9 -7 13 1 5 -2 7 -8 5 -7 -2 -11
-7 -10 -12 3 -15 -24 -26 -32 -13 -17 26 -9 46 17 41 30 -5 34 12 4 21 -18 6
-20 12 -15 48 l6 42 -15 -40 c-19 -50 -24 -95 -13 -117 5 -11 5 -18 -1 -18
-16 0 -22 16 -23 65 0 25 -5 48 -9 51 -5 3 -6 10 -3 16 4 6 8 50 9 98 1 66 6
97 23 130 12 24 19 47 16 52 -3 4 0 8 5 8 6 0 11 5 11 10 0 6 -7 10 -15 10 -9
0 -15 -9 -15 -24 0 -13 -7 -36 -15 -52 -8 -16 -17 -49 -20 -74 -11 -78 -37
-189 -44 -187 -4 1 -21 -14 -38 -33 -28 -30 -32 -32 -28 -12 2 12 7 28 12 35
4 6 8 21 10 32 2 18 1 18 -9 -2 -6 -13 -14 -23 -18 -23 -5 0 -11 -12 -14 -26
-5 -19 -12 -25 -29 -22 -12 1 -23 -1 -24 -6 -2 -14 -25 -25 -40 -19 -7 3 -10
10 -6 17 4 6 -1 5 -10 -3 -9 -7 -17 -10 -17 -5 0 5 -5 2 -11 -6 -8 -12 -12
-12 -16 -2 -10 26 -58 62 -73 56 -8 -4 -27 -9 -42 -12 -16 -2 -28 -7 -28 -11
0 -4 -22 -15 -49 -25 -35 -12 -48 -22 -44 -32 3 -9 0 -13 -8 -11 -8 2 -11 2
-6 0 4 -3 5 -9 1 -14 -10 -17 9 -9 32 12 20 18 22 19 20 4 -1 -10 -9 -23 -17
-29 -8 -6 -21 -24 -29 -39 -8 -16 -26 -37 -41 -47 l-26 -19 5 25 c2 13 13 29
23 35 17 8 27 39 14 39 -10 0 -50 -45 -47 -53 9 -29 -41 -61 -62 -39 -4 4 -24
7 -45 7 -30 0 -37 -4 -37 -20 1 -13 -9 -23 -29 -30 -16 -5 -36 -16 -43 -22 -7
-7 -23 -13 -34 -13 -12 0 -36 -11 -54 -25 -18 -14 -42 -25 -54 -25 -13 0 -20
-5 -18 -12 3 -7 -8 -19 -23 -28 -15 -8 -53 -35 -85 -60 -55 -43 -119 -82 -156
-96 -10 -3 -18 -10 -18 -15 0 -5 -8 -9 -19 -9 -26 0 -191 -163 -236 -232 -20
-32 -46 -82 -57 -110 -11 -29 -24 -58 -29 -64 -15 -18 -36 -88 -44 -140 -9
-67 -19 -107 -50 -188 -14 -38 -24 -70 -22 -72 3 -3 22 37 42 91 7 19 8 18 14
-5 5 -17 9 -21 15 -12 4 6 4 17 1 22 -3 6 -1 10 4 10 13 0 13 -6 5 -50 -4 -17
-10 -27 -13 -22 -3 5 -7 -31 -8 -82 -2 -69 0 -87 8 -73 6 10 8 29 5 42 -5 19
-3 23 9 19 11 -5 13 -2 9 9 -3 9 0 42 7 74 8 32 13 65 11 73 -1 8 3 24 8 35
24 54 39 95 54 152 9 34 27 82 41 105 14 24 30 55 36 71 12 29 29 37 29 12 0
-9 6 -18 13 -21 14 -5 20 -101 7 -109 -5 -3 -6 5 -4 17 2 13 2 17 -2 11 -6
-14 -34 -18 -34 -5 1 4 7 18 15 32 17 30 18 40 5 40 -5 0 -10 -9 -10 -20 0
-11 -4 -20 -10 -20 -14 0 -13 -37 1 -46 20 -12 2 -94 -39 -178 -22 -44 -44
-94 -48 -111 -4 -16 -13 -39 -20 -50 -8 -11 -14 -27 -14 -37 0 -10 -4 -18 -10
-18 -5 0 -13 -12 -16 -27 -4 -16 -11 -34 -17 -41 -5 -7 -7 -28 -4 -46 4 -24 1
-36 -9 -40 -7 -3 -11 -12 -8 -21 8 -21 -15 -47 -35 -40 -13 5 -14 4 -3 -6 17
-18 15 -66 -3 -73 -16 -6 -35 28 -35 62 0 9 -5 24 -10 32 -7 11 -10 3 -11 -30
0 -34 -2 -40 -9 -25 -5 11 -9 16 -10 10 0 -5 -7 -2 -14 8 -13 16 -14 16 -19
-4 -3 -11 1 -39 9 -62 12 -36 12 -39 0 -24 -13 17 -14 15 -11 -25 2 -23 10
-60 19 -80 9 -21 14 -38 11 -38 -3 0 -1 -9 5 -21 9 -17 7 -30 -15 -72 -14 -29
-40 -68 -56 -87 l-30 -35 -25 30 c-13 17 -24 24 -24 17 0 -23 -21 -1 -42 42
l-19 41 4 -33 c4 -33 3 -33 -15 -14 -11 10 -25 36 -33 58 -10 29 -18 38 -32
36 -25 -5 -25 -4 -28 -74 -4 -67 15 -123 56 -167 12 -12 19 -24 18 -26 -2 -1
-47 -24 -99 -50 -52 -26 -124 -65 -160 -85 -125 -73 -156 -90 -232 -130 -225
-116 -312 -220 -293 -348 10 -71 61 -184 116 -258 39 -53 48 -72 43 -93 -11
-47 -33 -69 -103 -106 -95 -50 -126 -95 -126 -185 0 -50 7 -79 28 -125 23 -49
26 -61 14 -70 -78 -57 -116 -111 -138 -195 -11 -40 -9 -53 10 -109 22 -65 29
-168 15 -227 -4 -16 -24 -72 -45 -125 -93 -232 -68 -392 85 -545 78 -78 153
-124 313 -191 157 -67 272 -93 442 -100 l143 -6 58 -39 c103 -68 276 -274 331
-393 15 -33 37 -107 49 -165 12 -58 32 -138 46 -178 20 -59 22 -77 13 -95 -7
-12 -15 -24 -20 -27 -8 -6 -36 -103 -51 -178 -16 -86 3 -215 46 -299 32 -64
57 -103 194 -303 31 -45 54 -91 57 -115 l7 -40 -77 78 c-43 43 -79 76 -82 74
-2 -3 35 -44 82 -93 l87 -88 -6 -48 c-10 -73 -12 -76 -74 -84 -74 -10 -171 -6
-337 12 -39 4 -46 3 -32 -6 9 -6 22 -8 27 -5 13 8 110 -24 110 -36 0 -5 -5 -9
-11 -9 -5 0 -7 -5 -3 -11 5 -8 9 -8 14 1 4 7 10 8 13 3 4 -5 14 -9 24 -8 123
12 187 20 226 28 14 2 14 0 -8 -88 -34 -133 -111 -311 -179 -410 -38 -56 -101
-116 -151 -145 -68 -39 -194 -165 -217 -216 -10 -23 -21 -62 -24 -87 -6 -40
-12 -50 -53 -78 -25 -19 -120 -107 -210 -196 -90 -90 -165 -163 -168 -163 -2
0 -27 -17 -56 -38 -29 -21 -74 -51 -102 -66 -46 -25 -50 -26 -62 -10 -7 10
-13 26 -13 36 0 19 -87 156 -137 216 -16 18 -56 63 -91 100 -34 37 -65 76 -68
87 -2 11 -1 83 4 160 19 280 8 659 -28 994 -15 139 -106 443 -168 561 -16 30
-48 90 -71 132 -22 42 -54 111 -71 154 -30 75 -189 404 -200 414 -7 6 -190
385 -190 394 0 3 -30 66 -66 139 -38 75 -77 171 -90 221 -31 113 -76 198 -136
257 -27 26 -48 53 -48 61 0 16 -53 187 -70 223 -4 11 -13 34 -19 50 -5 17 -23
62 -39 100 -15 39 -39 111 -52 160 -49 191 -160 450 -297 695 -14 25 -52 95
-85 155 -33 61 -85 144 -116 185 -57 78 -276 299 -336 340 -34 24 -122 147
-112 157 3 3 43 -2 88 -12 56 -12 156 -20 308 -25 200 -6 360 -24 360 -40 0
-3 33 -5 73 -4 80 1 179 25 241 56 90 46 189 166 241 294 15 38 34 83 41 101
8 17 14 35 14 41 0 16 60 86 87 100 21 12 27 11 44 -4 27 -24 70 -24 90 0 13
16 29 20 82 20 84 1 111 20 154 106 26 52 33 78 33 126 0 70 5 74 94 74 78 0
120 55 154 201 15 63 69 173 100 204 29 29 59 31 122 9 67 -24 194 -23 250 3
140 64 201 239 154 439 -31 132 -22 369 27 674 15 96 76 213 146 283 32 32 68
59 80 60 12 0 19 5 17 9 -3 4 2 8 10 8 8 0 21 8 28 18 7 10 28 24 46 31 17 7
32 17 32 22 0 5 12 4 26 -2 34 -12 42 -4 21 19 -22 24 -21 32 2 32 10 0 24 6
30 14 7 8 23 17 36 20 14 4 25 11 25 16 0 6 11 10 25 10 29 0 35 26 8 32 -13
3 -6 10 25 26 44 23 54 48 29 74 -15 16 -14 115 2 178 11 44 13 57 26 170 9
86 25 186 46 295 10 55 24 125 29 155 6 30 15 73 21 95 5 22 12 63 14 90 2 28
9 97 16 155 6 58 11 115 11 128 0 21 1 22 17 8 19 -17 31 -12 32 13 0 22 59
68 59 47 0 -10 6 -13 15 -10 8 4 15 16 15 28 1 19 2 19 11 3 6 -9 15 -15 20
-11 6 4 5 11 -3 21 -10 13 -8 14 12 11 23 -3 25 1 26 34 2 52 43 90 58 53 4
-11 0 -15 -12 -13 -11 2 -18 -4 -20 -18 -4 -29 23 -27 39 3 18 33 57 31 61 -4
4 -35 26 -41 34 -9 3 13 12 27 20 30 25 9 16 29 -10 22 -25 -6 -56 14 -56 38
0 6 15 20 33 31 39 22 47 33 47 63 0 23 25 31 34 10 3 -9 8 -8 16 5 6 9 16 17
21 17 6 0 7 -4 4 -10 -11 -17 7 -11 21 8 12 16 13 16 14 0 0 -25 -40 -60 -55
-48 -7 6 -19 8 -27 5 -32 -13 -57 -100 -28 -100 8 0 16 6 16 13 1 6 2 18 3 25
3 24 18 38 47 43 16 3 31 9 32 15 2 5 12 9 23 9 10 0 19 5 19 10 0 14 37 12
43 -2 3 -10 8 -9 18 3 17 20 49 32 49 19 0 -10 -15 -14 -35 -10 -5 1 -4 -4 3
-12 10 -10 16 -10 32 0 11 7 20 8 20 3 0 -5 10 -9 23 -8 12 0 31 -3 42 -8 19
-7 19 -7 1 7 -18 14 -17 15 12 15 34 0 102 29 102 44 0 6 5 7 10 4 6 -3 10 1
10 9 0 9 4 16 9 16 5 0 11 9 14 20 3 11 12 20 20 20 12 0 14 8 11 36 -3 24 -1
33 7 28 8 -5 8 -1 0 14 -17 32 -13 52 10 52 18 0 20 -4 14 -27 -4 -16 -3 -25
1 -20 4 4 16 -5 26 -20 10 -16 18 -23 18 -16 0 6 -5 15 -11 19 -6 4 -9 19 -5
38 5 24 3 28 -5 16 -9 -12 -10 -10 -6 8 5 21 3 23 -22 17 -25 -5 -30 -2 -42
27 -7 18 -18 36 -23 40 -6 4 4 13 22 21 18 7 29 16 25 20 -9 10 9 8 26 -2z
m1371 -1882 c0 -5 -3 -8 -7 -8 -20 3 -22 -3 -7 -25 9 -15 21 -22 30 -19 18 7
18 -11 1 -26 -10 -8 -17 -7 -26 2 -11 10 -11 8 -2 -10 13 -25 31 -31 31 -10 0
9 2 9 9 -1 4 -8 11 -13 15 -13 3 1 6 -1 6 -4 0 -3 0 -9 0 -15 0 -5 -4 -10 -10
-10 -5 0 -10 8 -10 17 0 13 -3 14 -12 5 -14 -14 -32 -16 -24 -3 3 5 -5 16 -18
25 -19 12 -26 12 -30 3 -5 -9 -7 -9 -12 1 -8 17 -34 15 -34 -3 0 -9 6 -12 15
-9 8 4 15 1 15 -5 0 -6 -5 -11 -12 -11 -6 0 -8 -3 -5 -6 4 -4 13 -1 22 6 9 8
15 8 15 2 0 -19 -17 -25 -151 -56 -8 -2 -31 -11 -50 -19 -33 -14 -37 -13 -47
4 -7 11 -8 19 -3 19 5 0 12 -6 15 -12 4 -7 4 -3 2 9 -2 13 1 21 8 20 6 -1 11
6 11 15 0 9 4 20 9 25 5 4 6 3 2 -4 -3 -6 -2 -14 4 -18 5 -3 10 -1 10 5 0 7 7
9 15 6 12 -4 14 -2 6 11 -7 12 -3 21 13 33 27 21 66 31 66 17 0 -29 17 15 19
51 1 6 6 12 12 12 6 0 9 -7 5 -15 -3 -9 0 -15 9 -15 8 0 14 3 14 8 -3 18 2 32
12 32 7 0 9 -10 7 -25 -3 -14 -2 -28 3 -31 10 -6 23 41 15 54 -3 5 6 7 19 4
14 -2 25 -8 25 -13z m-2229 -6668 c16 -63 34 -162 40 -220 6 -58 19 -136 29
-173 10 -38 16 -68 14 -68 -10 0 -122 185 -142 235 -13 33 -28 64 -32 68 -4 5
-4 23 0 41 4 19 5 56 2 84 -3 36 1 62 12 87 10 20 20 52 23 72 6 35 7 36 16
12 5 -13 22 -75 38 -138z"/>
</g>
</svg>
